<?xml version="1.0"?>
<svg version="1.1" xmlns="http://www.w3.org/2000/svg" width="400" height="200" style="border: dashed 2px #aaa"><path fill="#ffffff" d="M49.08,131.68c0,0.48-0.36,0.72-0.9,0.72l-5.46,0c-1.08,0-1.8-0.3-2.34-1.2l-8.64-14.1l-4.62,0l0,13.8c0,0.9-0.36,1.5-1.38,1.5l-4.92,0c-1.02,0-1.44-0.48-1.44-1.5l0-38.28c0-1.32,0.3-1.74,1.62-1.74l8.88,0c5.22,0,10.74,0.78,13.92,4.44c1.92,2.22,2.88,5.16,2.88,8.4c0,5.52-2.94,9.84-7.74,11.94l9.84,15.18c0.18,0.3,0.3,0.6,0.3,0.84z M38.82,103.84c0-5.22-3.48-7.08-8.7-7.08l-3,0l0,14.52l3.72,0c4.8,0,7.98-2.58,7.98-7.44z M91.11,128.08c0,1.2-0.3,1.68-1.44,2.28c-3.3,1.68-8.88,2.76-13.44,2.76c-12.48,0-19.56-8.64-19.56-21.36c0-12.54,8.1-21.66,20.34-21.66c3.84,0,7.38,0.66,10.98,2.28c0.66,0.3,0.84,0.66,0.84,1.08c0,0.24-0.12,0.48-0.18,0.72l-1.38,3.6c-0.24,0.6-0.48,0.84-0.9,0.84c-0.24,0-0.54-0.12-0.84-0.24c-1.98-0.84-5.4-1.74-8.16-1.74c-3.24,0-6.36,1.2-8.46,3.42c-2.52,2.64-3.96,6.54-3.96,11.46c0,9.3,4.38,15.12,11.58,15.12c2.46,0,5.16-0.36,6.78-1.02l0-11.46l-5.34,0c-0.84,0-1.32-0.3-1.32-1.32l0-3.66c0-0.96,0.48-1.2,1.38-1.2l11.64,0c1.02,0,1.44,0.3,1.44,1.38l0,18.72z M131.82,120.28c0,9.72-7.86,12.12-16.38,12.12l-11.16,0c-1.26,0-1.56-0.48-1.56-1.74l0-38.22c0-1.26,0.54-1.56,1.8-1.56l9,0c9.66,0,15.06,2.94,15.06,10.14c0,4.2-2.4,7.86-6.78,8.82l0,0.06c5.7,0.42,10.02,4.32,10.02,10.38z M121.02,101.92c0-3.9-3.06-5.16-7.26-5.16l-3.36,0l0,11.16l3.12,0c4.38,0,7.5-1.14,7.5-6z M123.96,120.04c0-2.82-1.26-4.62-3.18-5.58c-1.86-0.9-3.9-1.08-6.42-1.08l-3.96,0l0,13.08l4.44,0c2.1,0,4.14-0.18,5.64-0.78c2.1-0.9,3.48-2.76,3.48-5.64z M193.23,91.84c0,0.18-0.06,0.36-0.12,0.54l-11.22,38.4c-0.3,1.08-0.96,1.62-1.98,1.62l-3.96,0c-0.96,0-1.62-0.48-1.92-1.56l-7.8-27.48l-0.12,0l-7.8,27.3c-0.42,1.38-0.9,1.74-2.04,1.74l-3.84,0c-1.02,0-1.56-0.3-1.98-1.8l-11.46-37.98c-0.06-0.3-0.12-0.54-0.12-0.78c0-0.66,0.36-0.96,1.08-0.96l5.76,0c1.26,0,1.8,0.54,2.04,1.5l7.32,27.66l0.06,0l7.62-27.84c0.24-0.96,0.9-1.32,1.8-1.32l4.02,0c0.96,0,1.44,0.48,1.68,1.26l7.62,27.9l0.12,0l7.26-27.78c0.3-1.08,0.96-1.38,1.86-1.38l5.16,0c0.66,0,0.96,0.42,0.96,0.96z M229.86,131.26c0,0.72-0.48,1.14-1.2,1.14l-2.88,0c-3.12,0-4.5-1.5-4.92-3.54l-0.12,0c-1.5,2.22-5.4,4.26-8.7,4.26c-8.46,0-12.3-6.96-12.3-14.76c0-10.38,6.24-15.84,12.96-15.84c3.18,0,6.18,1.44,7.68,3.48l0.12-1.62c0.06-0.66,0.54-1.08,1.26-1.08l4.2,0c0.78,0,1.26,0.42,1.26,1.32l0,20.82c0,0.84,0.12,1.44,0.36,1.74c0.18,0.18,0.42,0.24,0.72,0.24l0.48,0c0.72,0,1.08,0.24,1.08,1.02l0,2.82z M219.96,123.1l0-11.58c-1.2-1.74-3.66-3.06-5.94-3.06c-3.66,0-6.78,3.12-6.78,9.42c0,5.04,1.92,9.3,6.36,9.3c2.94,0,5.46-2.22,6.36-4.08z M245.91,130.9c0,1.02-0.48,1.5-1.32,1.5l-4.56,0c-0.84,0-1.38-0.42-1.38-1.44l0-39.36c0-1.02,0.42-1.32,1.2-1.44l4.32-0.6c0.12,0,0.3-0.06,0.42-0.06c0.72,0,1.32,0.36,1.32,1.32l0,40.08z M264.3,130.9c0,1.02-0.48,1.5-1.32,1.5l-4.56,0c-0.84,0-1.38-0.42-1.38-1.44l0-39.36c0-1.02,0.42-1.32,1.2-1.44l4.32-0.6c0.12,0,0.3-0.06,0.42-0.06c0.72,0,1.32,0.36,1.32,1.32l0,40.08z M300.87,117.76c0,1.44-0.48,1.74-1.98,1.74l-17.58,0c0.48,4.62,3.84,7.8,8.58,7.8c2.52,0,5.16-0.6,7.38-1.44c0.24-0.06,0.42-0.18,0.66-0.18c0.42,0,0.72,0.24,0.84,0.72l0.84,3.06c0.06,0.3,0.12,0.54,0.12,0.72c0,0.42-0.24,0.72-0.96,1.02c-2.94,1.32-6.96,1.92-10.08,1.92c-9.42,0-15-6-15-15.36c0-9,5.94-15.24,14.88-15.24c3.66,0,6.66,1.38,8.76,3.6c2.76,2.88,3.54,6.66,3.54,10.74l0,0.9z M293.73,114.76l0-0.66c-0.12-3.12-1.92-6-5.58-6c-3.9,0-6.24,3.12-6.72,6.66l12.3,0z M328.02,130.6c0,0.6-0.3,0.9-0.9,1.14c-1.86,0.78-4.32,1.38-6.72,1.38c-3.06,0-5.7-0.78-7.2-2.52c-1.86-2.1-1.92-4.56-1.92-8.94l0-13.38l-2.82,0c-1.14,0-1.32-0.24-1.32-1.5l0-2.28c0-0.72,0.36-1.2,1.08-1.2l3.06,0l0-6.54c0-1.02,0.54-1.32,1.5-1.44l4.32-0.54l0.3,0c0.78,0,1.14,0.42,1.14,1.32l0,7.2l6.78,0c0.72,0,1.14,0.24,1.14,1.02l0,2.82c0,0.72-0.48,1.14-1.2,1.14l-6.72,0l0,13.74c0,1.8,0.12,3.12,0.78,4.08c0.54,0.78,1.38,1.26,2.82,1.26c1.5,0,2.76-0.36,3.84-0.72c0.24-0.06,0.42-0.12,0.6-0.12c0.42,0,0.66,0.24,0.78,0.72l0.6,3c0.06,0.18,0.06,0.24,0.06,0.36z"/><path fill="#ffffff" d=""/></svg>
