<svg width="20" height="20" viewBox="0 0 20 20" fill="none" xmlns="http://www.w3.org/2000/svg">
<path d="M10 0C4.48566 0 0 4.48566 0 10C0 15.5143 4.48566 20 10 20C15.5143 20 20 15.5136 20 10C20 4.48645 15.5143 0 10 0ZM10 18.4508C5.34082 18.4508 1.54918 14.66 1.54918 10C1.54918 5.34004 5.34082 1.54918 10 1.54918C14.6592 1.54918 18.4508 5.34004 18.4508 10C18.4508 14.66 14.66 18.4508 10 18.4508Z" fill="white"/>
<path d="M13.8731 9.15568H10.7747V6.05732C10.7747 5.62975 10.4285 5.28271 10.0001 5.28271C9.57176 5.28271 9.22551 5.62975 9.22551 6.05732V9.15568H6.12715C5.69879 9.15568 5.35254 9.50272 5.35254 9.93029C5.35254 10.3579 5.69879 10.7049 6.12715 10.7049H9.22551V13.8033C9.22551 14.2308 9.57176 14.5779 10.0001 14.5779C10.4285 14.5779 10.7747 14.2308 10.7747 13.8033V10.7049H13.8731C14.3014 10.7049 14.6477 10.3579 14.6477 9.93029C14.6477 9.50272 14.3014 9.15568 13.8731 9.15568Z" fill="white"/>
</svg>
