<svg width="25" height="25" viewBox="0 0 25 25" fill="none" xmlns="http://www.w3.org/2000/svg">
<path d="M14.3587 12.0355C13.9743 11.8528 13.5822 11.6954 13.1832 11.5636C14.4755 10.5936 15.313 9.04902 15.313 7.3125C15.313 4.3832 12.9298 2 10.0005 2C7.07114 2 4.68797 4.3832 4.68797 7.3125C4.68797 9.05094 5.52735 10.597 6.82207 11.5668C5.63582 11.9574 4.52274 12.5651 3.54852 13.3664C1.76211 14.8358 0.520044 16.8854 0.0511764 19.1376C-0.0957768 19.8433 0.0802779 20.5682 0.534106 21.1262C0.985708 21.6815 1.65536 22 2.37129 22H11.9927C12.4241 22 12.7739 21.6502 12.7739 21.2188C12.7739 20.7873 12.4241 20.4375 11.9927 20.4375H2.37129C2.03778 20.4375 1.83657 20.2513 1.74633 20.1404C1.59051 19.9488 1.5302 19.6994 1.58086 19.4561C2.39161 15.5617 5.82661 12.717 9.79336 12.621C9.86207 12.6237 9.9311 12.625 10.0005 12.625C10.0705 12.625 10.1402 12.6236 10.2096 12.6209C11.4252 12.6495 12.5944 12.9269 13.6879 13.4467C14.0776 13.6319 14.5436 13.4662 14.7289 13.0765C14.9141 12.6868 14.7484 12.2207 14.3587 12.0355ZM10.191 11.0577C10.1276 11.0566 10.0641 11.056 10.0005 11.056C9.93743 11.056 9.87438 11.0566 9.81141 11.0578C7.83114 10.959 6.25047 9.31688 6.25047 7.3125C6.25047 5.24473 7.9327 3.5625 10.0005 3.5625C12.0682 3.5625 13.7505 5.24473 13.7505 7.3125C13.7505 9.31637 12.1706 10.9582 10.191 11.0577Z" fill="white"/>
<path d="M19.2188 17.5078H17.0703V15.3594C17.0703 14.9279 16.7205 14.5781 16.2891 14.5781C15.8576 14.5781 15.5078 14.9279 15.5078 15.3594V17.5078H13.3594C12.9279 17.5078 12.5781 17.8576 12.5781 18.2891C12.5781 18.7205 12.9279 19.0703 13.3594 19.0703H15.5078V21.2188C15.5078 21.6502 15.8576 22 16.2891 22C16.7205 22 17.0703 21.6502 17.0703 21.2188V19.0703H19.2188C19.6502 19.0703 20 18.7205 20 18.2891C20 17.8576 19.6502 17.5078 19.2188 17.5078Z" fill="white"/>
</svg>
