<svg width="63" height="60" viewBox="0 0 63 60" fill="none" xmlns="http://www.w3.org/2000/svg">
<path d="M34.3759 33.7761C33.6195 33.3719 32.7878 33.1281 31.9328 33.0601C31.6558 33.0352 31.5007 33.0407 31.358 33.0352C30.063 32.9853 27.6822 31.9396 27.6434 30.243C27.6102 28.7319 29.4536 27.3926 31.358 27.3926C33.2264 27.3926 34.7762 28.4577 35.0324 29.8386C35.11 30.2859 35.6155 30.5643 36.0656 30.466C36.2567 30.4317 36.4267 30.3239 36.5391 30.1657C36.6515 30.0074 36.6974 29.8114 36.6667 29.6197C36.29 27.5561 34.0532 25.9661 31.358 25.9661C28.3982 25.9661 25.9897 27.8829 25.9897 30.2388C25.9897 31.7055 26.9218 33.0019 28.3442 33.772C29.4522 34.3717 30.786 34.488 30.786 34.488C31.0408 34.5102 31.1849 34.5074 31.3068 34.5116C32.5796 34.5573 35.0338 35.585 35.074 37.3051C35.11 38.8203 33.2582 40.1749 31.3622 40.1555C29.1683 40.1333 27.7445 38.2802 27.6683 37.0212V37.0087C27.6559 36.6002 27.2528 36.2802 26.7819 36.3038C26.311 36.3273 25.9509 36.6971 26.0022 37.1071C26.2307 39.6361 28.6337 41.5613 31.3635 41.5793C34.2277 41.5973 36.7305 39.5018 36.7305 37.3051C36.7249 35.8426 35.7928 34.5462 34.3759 33.7761Z" fill="white"/>
<path d="M31.3566 44.1195C30.966 44.1195 30.6475 43.8425 30.6475 43.5101V24.0438C30.6475 23.7072 30.966 23.433 31.3566 23.433C31.7486 23.433 32.0657 23.71 32.0657 24.0438V43.5101C32.0657 43.8466 31.7486 44.1195 31.3566 44.1195Z" fill="white"/>
<path d="M38.6681 53.5514H24.0465C23.354 53.5514 22.8 53.0971 22.8 52.5362C22.8 51.9753 23.354 51.521 24.0465 51.521H38.6681C39.3606 51.521 39.9146 51.9753 39.9146 52.5362C39.9146 53.0971 39.3564 53.5514 38.6681 53.5514Z" fill="white"/>
<path d="M36.8288 56.7758H25.8872C25.1947 56.7758 24.6407 56.3215 24.6407 55.7606C24.6407 55.1996 25.1947 54.7454 25.8872 54.7454H36.8288C37.5213 54.7454 38.0753 55.1996 38.0753 55.7606C38.0753 56.3215 37.5171 56.7758 36.8288 56.7758Z" fill="white"/>
<path d="M33.4702 60H29.2445C28.552 60 27.998 59.5457 27.998 58.9848C27.998 58.4308 28.552 57.9709 29.2445 57.9709H33.4702C34.1627 57.9709 34.7167 58.4252 34.7167 58.9848C34.7167 59.5457 34.1585 60 33.4702 60Z" fill="white"/>
<path d="M49.2759 31.9937C49.2752 34.9091 48.5629 37.7803 47.2009 40.358C45.8389 42.9358 43.8683 45.1421 41.4603 46.7856V46.7856C41.4339 46.805 41.4062 46.823 41.3785 46.841C41.373 46.8464 41.3664 46.8506 41.3592 46.8534C41.1628 46.9734 40.937 47.0367 40.7068 47.0363C40.4555 47.0381 40.2094 46.9647 40.0001 46.8254C39.7909 46.6862 39.6281 46.4875 39.5328 46.2549C39.4374 46.0224 39.4138 45.7666 39.4651 45.5205C39.5164 45.2745 39.6401 45.0494 39.8204 44.8743C39.9451 44.7926 40.0683 44.7081 40.1902 44.6222C42.8691 42.7482 44.8834 40.0717 45.9424 36.9786C47.0014 33.8856 47.0504 30.5361 46.0823 27.4135C45.1141 24.2908 43.1789 21.5565 40.5559 19.605C37.933 17.6536 34.7578 16.5859 31.4887 16.5561C28.2195 16.5262 25.0254 17.5358 22.3673 19.4391C19.7091 21.3424 17.7244 24.0409 16.6994 27.1454C15.6745 30.2499 15.6623 33.5997 16.6647 36.7115C17.6671 39.8234 19.6322 42.5363 22.2765 44.4588C22.3679 44.5266 22.4593 44.5973 22.5535 44.6568C22.7645 44.8674 22.8937 45.1461 22.9183 45.4432C22.9428 45.7403 22.8611 46.0364 22.6876 46.2788C22.514 46.5212 22.2601 46.6941 21.9709 46.7666C21.6818 46.8391 21.3763 46.8066 21.1089 46.6748C21.012 46.6069 20.915 46.5363 20.8195 46.4684C18.5341 44.8092 16.6736 42.6329 15.3902 40.1172C14.1067 37.6015 13.4366 34.8179 13.4346 31.9937C13.4346 22.1144 21.4676 14.0758 31.3538 14.0758C41.24 14.0758 49.2759 22.1102 49.2759 31.9937Z" fill="white"/>
<path d="M32.394 1.03737C32.394 0.464447 31.9296 0 31.3566 0C30.7837 0 30.3193 0.464447 30.3193 1.03737V8.54551C30.3193 9.11843 30.7837 9.58288 31.3566 9.58288C31.9296 9.58288 32.394 9.11843 32.394 8.54551V1.03737Z" fill="white"/>
<path d="M61.6759 31.5893C62.2488 31.5893 62.7132 31.1248 62.7132 30.5519C62.7132 29.979 62.2488 29.5145 61.6759 29.5145H54.1677C53.5948 29.5145 53.1304 29.979 53.1304 30.5519C53.1304 31.1248 53.5948 31.5893 54.1677 31.5893H61.6759Z" fill="white"/>
<path d="M8.54552 31.5906C9.11844 31.5906 9.58289 31.1262 9.58289 30.5532C9.58289 29.9803 9.11844 29.5159 8.54552 29.5159H1.03738C0.464456 29.5159 7.62939e-06 29.9803 7.62939e-06 30.5532C7.62939e-06 31.1262 0.464456 31.5906 1.03738 31.5906H8.54552Z" fill="white"/>
<path d="M54.0975 11.3537C54.5026 10.9486 54.5026 10.2917 54.0975 9.88661C53.6924 9.48149 53.0355 9.48149 52.6304 9.88661L47.3213 15.1957C46.9162 15.6008 46.9162 16.2576 47.3213 16.6627C47.7265 17.0679 48.3833 17.0678 48.7884 16.6627L54.0975 11.3537Z" fill="white"/>
<path d="M10.809 9.8861C10.4039 9.48098 9.74707 9.48098 9.34195 9.8861C8.93684 10.2912 8.93683 10.948 9.34195 11.3532L14.651 16.6622C15.0561 17.0673 15.713 17.0673 16.1181 16.6622C16.5232 16.2571 16.5232 15.6003 16.1181 15.1951L10.809 9.8861Z" fill="white"/>
</svg>
