<svg width="50" height="50" viewBox="0 0 50 50" fill="none" xmlns="http://www.w3.org/2000/svg">
<g clip-path="url(#clip0)">
<path d="M48.047 23.0469H6.68395L13.5359 16.2281C14.3005 15.4672 14.3034 14.2306 13.5424 13.466C12.7815 12.7014 11.5448 12.6985 10.7802 13.4594L0.574768 23.6156C0.574085 23.6162 0.573597 23.6169 0.573011 23.6175C-0.189587 24.3784 -0.192028 25.619 0.572815 26.3825C0.573499 26.3831 0.573987 26.3838 0.574573 26.3844L10.78 36.5406C11.5445 37.3013 12.7812 37.2987 13.5422 36.534C14.3032 35.7694 14.3003 34.5328 13.5357 33.7718L6.68395 26.9531H48.047C49.1257 26.9531 50.0002 26.0787 50.0002 25C50.0002 23.9213 49.1257 23.0469 48.047 23.0469Z" fill="white"/>
</g>
<defs>
<clipPath id="clip0">
<rect width="50" height="50" fill="white"/>
</clipPath>
</defs>
</svg>
