<svg width="142" height="20" viewBox="0 0 142 20" fill="none" xmlns="http://www.w3.org/2000/svg">
<path d="M13.6176 19.3398C13.6176 19.5598 13.4525 19.6699 13.205 19.6699H10.7015C10.2063 19.6699 9.8762 19.5323 9.62861 19.1197L5.66712 12.6547H3.54883V18.9821C3.54883 19.3948 3.38377 19.6699 2.91609 19.6699H0.660248C0.192572 19.6699 0 19.4498 0 18.9821V1.43054C0 0.825311 0.137552 0.632736 0.742779 0.632736H4.8143C7.2077 0.632736 9.73865 0.990371 11.1967 2.6685C12.077 3.68638 12.5172 5.03439 12.5172 6.51995C12.5172 9.0509 11.1692 11.0316 8.96836 11.9945L13.4801 18.9546C13.5626 19.0922 13.6176 19.2297 13.6176 19.3398ZM8.91334 6.57497C8.91334 4.18157 7.31774 3.32875 4.92435 3.32875H3.54883V9.98625H5.25447C7.4553 9.98625 8.91334 8.8033 8.91334 6.57497ZM32.8886 17.6891C32.8886 18.2393 32.751 18.4594 32.2283 18.7345C30.7153 19.5048 28.1568 20 26.066 20C20.3439 20 17.0977 16.0385 17.0977 10.2063C17.0977 4.45667 20.8116 0.275102 26.4237 0.275102C28.1843 0.275102 29.8074 0.577715 31.458 1.32049C31.7607 1.45805 31.8432 1.62311 31.8432 1.81568C31.8432 1.92572 31.7882 2.03576 31.7607 2.14581L31.1279 3.79642C31.0179 4.07153 30.9078 4.18157 30.7153 4.18157C30.6052 4.18157 30.4677 4.12655 30.3301 4.07153C29.4223 3.68638 27.8542 3.27373 26.5887 3.27373C25.1032 3.27373 23.6726 3.82393 22.7098 4.84181C21.5543 6.05227 20.8941 7.84044 20.8941 10.0963C20.8941 14.3604 22.9023 17.0289 26.2036 17.0289C27.3315 17.0289 28.5695 16.8638 29.3122 16.5612V11.3067H26.8638C26.4787 11.3067 26.2586 11.1692 26.2586 10.7015V9.02339C26.2586 8.58322 26.4787 8.47318 26.8913 8.47318H32.2283C32.696 8.47318 32.8886 8.61073 32.8886 9.10592V17.6891ZM51.5543 14.1128C51.5543 18.5695 47.9505 19.6699 44.044 19.6699H38.9271C38.3494 19.6699 38.2118 19.4498 38.2118 18.8721V1.34801C38.2118 0.77029 38.4594 0.632736 39.0371 0.632736H43.1637C47.5928 0.632736 50.0688 1.98074 50.0688 5.28198C50.0688 7.2077 48.9684 8.88583 46.9601 9.326V9.35351C49.5736 9.54608 51.5543 11.3343 51.5543 14.1128ZM46.6025 5.69464C46.6025 3.90646 45.1994 3.32875 43.2737 3.32875H41.7331V8.44567H43.1637C45.1719 8.44567 46.6025 7.92297 46.6025 5.69464ZM47.9505 14.0028C47.9505 12.7098 47.3728 11.8845 46.4924 11.4443C45.6396 11.0316 44.7043 10.9491 43.5488 10.9491H41.7331V16.9464H43.7689C44.7318 16.9464 45.6671 16.8638 46.3549 16.5887C47.3177 16.1761 47.9505 15.3232 47.9505 14.0028ZM79.7111 1.0729C79.7111 1.15543 79.6836 1.23796 79.6561 1.32049L74.5117 18.9271C74.3741 19.4223 74.0715 19.6699 73.6038 19.6699H71.7882C71.348 19.6699 71.0454 19.4498 70.9078 18.9546L67.3315 6.35488H67.2765L63.7001 18.8721C63.5076 19.5048 63.2875 19.6699 62.7648 19.6699H61.0041C60.5364 19.6699 60.2888 19.5323 60.0963 18.8446L54.8418 1.43054C54.8143 1.29299 54.7868 1.18294 54.7868 1.0729C54.7868 0.770287 54.9519 0.632736 55.282 0.632736H57.923C58.5007 0.632736 58.7483 0.880329 58.8583 1.32049L62.2146 14.0028H62.2421L65.7359 1.23796C65.8459 0.797798 66.1485 0.632736 66.5612 0.632736H68.4044C68.8446 0.632736 69.0646 0.85282 69.1747 1.21045L72.6685 14.0028H72.7235L76.0523 1.26548C76.1898 0.77029 76.4924 0.632736 76.9051 0.632736H79.271C79.5736 0.632736 79.7111 0.825308 79.7111 1.0729ZM96.5062 19.1472C96.5062 19.4773 96.2861 19.6699 95.956 19.6699H94.6355C93.2049 19.6699 92.5722 18.9821 92.3796 18.0468H92.3246C91.6368 19.0647 89.8487 20 88.3356 20C84.4567 20 82.696 16.8088 82.696 13.2325C82.696 8.47318 85.5571 5.96974 88.6382 5.96974C90.0963 5.96974 91.4718 6.62999 92.1595 7.56534L92.2146 6.82256C92.2421 6.51994 92.4622 6.32737 92.7923 6.32737H94.718C95.0756 6.32737 95.2957 6.51995 95.2957 6.9326V16.4787C95.2957 16.8638 95.3507 17.1389 95.4608 17.2765C95.5433 17.359 95.6534 17.3865 95.7909 17.3865H96.011C96.3411 17.3865 96.5062 17.4966 96.5062 17.8542V19.1472ZM91.967 15.4058V10.0963C91.4168 9.29849 90.2888 8.69326 89.2435 8.69326C87.5653 8.69326 86.1348 10.1238 86.1348 13.0124C86.1348 15.3232 87.0151 17.2765 89.0509 17.2765C90.3989 17.2765 91.5543 16.2586 91.967 15.4058ZM103.865 18.9821C103.865 19.4498 103.645 19.6699 103.26 19.6699H101.169C100.784 19.6699 100.536 19.4773 100.536 19.0096V0.962861C100.536 0.495185 100.729 0.357636 101.087 0.302615L103.067 0.0275092C103.122 0.0275092 103.205 0 103.26 0C103.59 0 103.865 0.165062 103.865 0.605227V18.9821ZM112.297 18.9821C112.297 19.4498 112.077 19.6699 111.692 19.6699H109.601C109.216 19.6699 108.968 19.4773 108.968 19.0096V0.962861C108.968 0.495185 109.161 0.357636 109.519 0.302615L111.499 0.0275092C111.554 0.0275092 111.637 0 111.692 0C112.022 0 112.297 0.165062 112.297 0.605227V18.9821ZM129.065 12.9574C129.065 13.6176 128.845 13.7552 128.157 13.7552H120.096C120.316 15.8735 121.857 17.3315 124.03 17.3315C125.186 17.3315 126.396 17.0564 127.414 16.6713C127.524 16.6437 127.607 16.5887 127.717 16.5887C127.909 16.5887 128.047 16.6988 128.102 16.9188L128.487 18.3219C128.514 18.4594 128.542 18.5695 128.542 18.652C128.542 18.8446 128.432 18.9821 128.102 19.1197C126.754 19.7249 124.911 20 123.48 20C119.161 20 116.602 17.249 116.602 12.9574C116.602 8.83081 119.326 5.96974 123.425 5.96974C125.103 5.96974 126.479 6.60248 127.442 7.62036C128.707 8.94086 129.065 10.674 129.065 12.5447V12.9574ZM125.791 11.5818V11.2792C125.736 9.84869 124.911 8.5282 123.232 8.5282C121.444 8.5282 120.371 9.95874 120.151 11.5818H125.791ZM141.513 18.8446C141.513 19.1197 141.375 19.2572 141.1 19.3673C140.248 19.7249 139.12 20 138.019 20C136.616 20 135.406 19.6424 134.718 18.8446C133.865 17.8817 133.838 16.7538 133.838 14.7455V8.61073H132.545C132.022 8.61073 131.939 8.50069 131.939 7.92297V6.87758C131.939 6.54746 132.105 6.32737 132.435 6.32737H133.838V3.32875C133.838 2.86107 134.085 2.72352 134.525 2.6685L136.506 2.42091H136.644C137.001 2.42091 137.166 2.61348 137.166 3.02613V6.32737H140.275C140.605 6.32737 140.798 6.43741 140.798 6.79505V8.08803C140.798 8.41816 140.578 8.61073 140.248 8.61073H137.166V14.9106C137.166 15.7359 137.221 16.3411 137.524 16.7813C137.772 17.1389 138.157 17.359 138.817 17.359C139.505 17.359 140.083 17.1939 140.578 17.0289C140.688 17.0014 140.77 16.9739 140.853 16.9739C141.045 16.9739 141.155 17.0839 141.21 17.304L141.486 18.6795C141.513 18.762 141.513 18.7896 141.513 18.8446Z" fill="white"/>
</svg>
