<svg width="20" height="20" viewBox="0 0 20 20" fill="none" xmlns="http://www.w3.org/2000/svg">
<g clip-path="url(#clip0)">
<path d="M10 20C15.5229 20 20 15.5229 20 10C20 4.47716 15.5229 0 10 0C4.47716 0 0 4.47716 0 10C0 15.5229 4.47716 20 10 20Z" fill="#E24C4B"/>
<path d="M20 9.99995C20 15.5 15.5 20 10 20C6.81253 20 4.00002 18.5625 2.1875 16.25C3.875 17.625 6.06251 18.4375 8.43749 18.4375C13.9375 18.4375 18.4375 13.9375 18.4375 8.43748C18.4375 6.0625 17.625 3.875 16.25 2.1875C18.5625 3.99993 20 6.81243 20 9.99995Z" fill="#D1403F"/>
<path d="M14.5625 14.5625C14.1875 14.9375 13.5625 14.9375 13.1875 14.5625L9.99999 11.375L6.8125 14.5625C6.43751 14.9375 5.81248 14.9375 5.43749 14.5625C5.0625 14.1875 5.0625 13.5625 5.43749 13.1875L8.62498 9.99999L5.43749 6.8125C5.0625 6.43751 5.0625 5.81248 5.43749 5.43749C5.81248 5.0625 6.43751 5.0625 6.8125 5.43749L9.99999 8.62498L13.1875 5.43749C13.5625 5.0625 14.1875 5.0625 14.5625 5.43749C14.9375 5.81248 14.9375 6.43751 14.5625 6.8125L11.375 9.99999L14.5625 13.1875C14.9375 13.5625 14.9375 14.1875 14.5625 14.5625Z" fill="white"/>
</g>
<defs>
<clipPath id="clip0">
<rect width="20" height="20" fill="white"/>
</clipPath>
</defs>
</svg>
