<svg width="565" height="150" viewBox="0 0 565 150" fill="none" xmlns="http://www.w3.org/2000/svg">
<path d="M145.62 71.52C145.62 72.24 145.08 72.6 144.27 72.6H136.08C134.46 72.6 133.38 72.15 132.57 70.8L119.61 49.65H112.68V70.35C112.68 71.7 112.14 72.6 110.61 72.6H103.23C101.7 72.6 101.07 71.88 101.07 70.35V12.93C101.07 10.95 101.52 10.32 103.5 10.32H116.82C124.65 10.32 132.93 11.49 137.7 16.98C140.58 20.31 142.02 24.72 142.02 29.58C142.02 37.86 137.61 44.34 130.41 47.49L145.17 70.26C145.44 70.71 145.62 71.16 145.62 71.52ZM130.23 29.76C130.23 21.93 125.01 19.14 117.18 19.14H112.68V40.92H118.26C125.46 40.92 130.23 37.05 130.23 29.76ZM208.665 66.12C208.665 67.92 208.215 68.64 206.505 69.54C201.555 72.06 193.185 73.68 186.345 73.68C167.625 73.68 157.005 60.72 157.005 41.64C157.005 22.83 169.155 9.15 187.515 9.15C193.275 9.15 198.585 10.14 203.985 12.57C204.975 13.02 205.245 13.56 205.245 14.19C205.245 14.55 205.065 14.91 204.975 15.27L202.905 20.67C202.545 21.57 202.185 21.93 201.555 21.93C201.195 21.93 200.745 21.75 200.295 21.57C197.325 20.31 192.195 18.96 188.055 18.96C183.195 18.96 178.515 20.76 175.365 24.09C171.585 28.05 169.425 33.9 169.425 41.28C169.425 55.23 175.995 63.96 186.795 63.96C190.485 63.96 194.535 63.42 196.965 62.43V45.24H188.955C187.695 45.24 186.975 44.79 186.975 43.26V37.77C186.975 36.33 187.695 35.97 189.045 35.97H206.505C208.035 35.97 208.665 36.42 208.665 38.04V66.12ZM269.73 54.42C269.73 69 257.94 72.6 245.16 72.6H228.42C226.53 72.6 226.08 71.88 226.08 69.99V12.66C226.08 10.77 226.89 10.32 228.78 10.32H242.28C256.77 10.32 264.87 14.73 264.87 25.53C264.87 31.83 261.27 37.32 254.7 38.76V38.85C263.25 39.48 269.73 45.33 269.73 54.42ZM253.53 26.88C253.53 21.03 248.94 19.14 242.64 19.14H237.6V35.88H242.28C248.85 35.88 253.53 34.17 253.53 26.88ZM257.94 54.06C257.94 49.83 256.05 47.13 253.17 45.69C250.38 44.34 247.32 44.07 243.54 44.07H237.6V63.69H244.26C247.41 63.69 250.47 63.42 252.72 62.52C255.87 61.17 257.94 58.38 257.94 54.06ZM361.845 11.76C361.845 12.03 361.755 12.3 361.665 12.57L344.835 70.17C344.385 71.79 343.395 72.6 341.865 72.6H335.925C334.485 72.6 333.495 71.88 333.045 70.26L321.345 29.04H321.165L309.465 69.99C308.835 72.06 308.115 72.6 306.405 72.6H300.645C299.115 72.6 298.305 72.15 297.675 69.9L280.485 12.93C280.395 12.48 280.305 12.12 280.305 11.76C280.305 10.77 280.845 10.32 281.925 10.32H290.565C292.455 10.32 293.265 11.13 293.625 12.57L304.605 54.06H304.695L316.125 12.3C316.485 10.86 317.475 10.32 318.825 10.32H324.855C326.295 10.32 327.015 11.04 327.375 12.21L338.805 54.06H338.985L349.875 12.39C350.325 10.77 351.315 10.32 352.665 10.32H360.405C361.395 10.32 361.845 10.95 361.845 11.76ZM416.79 70.89C416.79 71.97 416.07 72.6 414.99 72.6H410.67C405.99 72.6 403.92 70.35 403.29 67.29H403.11C400.86 70.62 395.01 73.68 390.06 73.68C377.37 73.68 371.61 63.24 371.61 51.54C371.61 35.97 380.97 27.78 391.05 27.78C395.82 27.78 400.32 29.94 402.57 33L402.75 30.57C402.84 29.58 403.56 28.95 404.64 28.95H410.94C412.11 28.95 412.83 29.58 412.83 30.93V62.16C412.83 63.42 413.01 64.32 413.37 64.77C413.64 65.04 414 65.13 414.45 65.13H415.17C416.25 65.13 416.79 65.49 416.79 66.66V70.89ZM401.94 58.65V41.28C400.14 38.67 396.45 36.69 393.03 36.69C387.54 36.69 382.86 41.37 382.86 50.82C382.86 58.38 385.74 64.77 392.4 64.77C396.81 64.77 400.59 61.44 401.94 58.65ZM440.865 70.35C440.865 71.88 440.145 72.6 438.885 72.6H432.045C430.785 72.6 429.975 71.97 429.975 70.44V11.4C429.975 9.87 430.605 9.42001 431.775 9.24001L438.255 8.34C438.435 8.34 438.705 8.25 438.885 8.25C439.965 8.25 440.865 8.79 440.865 10.23V70.35ZM468.45 70.35C468.45 71.88 467.73 72.6 466.47 72.6H459.63C458.37 72.6 457.56 71.97 457.56 70.44V11.4C457.56 9.87 458.19 9.42001 459.36 9.24001L465.84 8.34C466.02 8.34 466.29 8.25 466.47 8.25C467.55 8.25 468.45 8.79 468.45 10.23V70.35ZM523.305 50.64C523.305 52.8 522.585 53.25 520.335 53.25H493.965C494.685 60.18 499.725 64.95 506.835 64.95C510.615 64.95 514.575 64.05 517.905 62.79C518.265 62.7 518.535 62.52 518.895 62.52C519.525 62.52 519.975 62.88 520.155 63.6L521.415 68.19C521.505 68.64 521.595 69 521.595 69.27C521.595 69.9 521.235 70.35 520.155 70.8C515.745 72.78 509.715 73.68 505.035 73.68C490.905 73.68 482.535 64.68 482.535 50.64C482.535 37.14 491.445 27.78 504.855 27.78C510.345 27.78 514.845 29.85 517.995 33.18C522.135 37.5 523.305 43.17 523.305 49.29V50.64ZM512.595 46.14V45.15C512.415 40.47 509.715 36.15 504.225 36.15C498.375 36.15 494.865 40.83 494.145 46.14H512.595ZM564.03 69.9C564.03 70.8 563.58 71.25 562.68 71.61C559.89 72.78 556.2 73.68 552.6 73.68C548.01 73.68 544.05 72.51 541.8 69.9C539.01 66.75 538.92 63.06 538.92 56.49V36.42H534.69C532.98 36.42 532.71 36.06 532.71 34.17V30.75C532.71 29.67 533.25 28.95 534.33 28.95H538.92V19.14C538.92 17.61 539.73 17.16 541.17 16.98L547.65 16.17H548.1C549.27 16.17 549.81 16.8 549.81 18.15V28.95H559.98C561.06 28.95 561.69 29.31 561.69 30.48V34.71C561.69 35.79 560.97 36.42 559.89 36.42H549.81V57.03C549.81 59.73 549.99 61.71 550.98 63.15C551.79 64.32 553.05 65.04 555.21 65.04C557.46 65.04 559.35 64.5 560.97 63.96C561.33 63.87 561.6 63.78 561.87 63.78C562.5 63.78 562.86 64.14 563.04 64.86L563.94 69.36C564.03 69.63 564.03 69.72 564.03 69.9Z" fill="white"/>
<path d="M111.728 140.252C110.072 140.252 108.584 139.964 107.264 139.388C105.968 138.788 104.948 137.972 104.204 136.94C103.46 135.884 103.076 134.672 103.052 133.304H106.544C106.664 134.48 107.144 135.476 107.984 136.292C108.848 137.084 110.096 137.48 111.728 137.48C113.288 137.48 114.512 137.096 115.4 136.328C116.312 135.536 116.768 134.528 116.768 133.304C116.768 132.344 116.504 131.564 115.976 130.964C115.448 130.364 114.788 129.908 113.996 129.596C113.204 129.284 112.136 128.948 110.792 128.588C109.136 128.156 107.804 127.724 106.796 127.292C105.812 126.86 104.96 126.188 104.24 125.276C103.544 124.34 103.196 123.092 103.196 121.532C103.196 120.164 103.544 118.952 104.24 117.896C104.936 116.84 105.908 116.024 107.156 115.448C108.428 114.872 109.88 114.584 111.512 114.584C113.864 114.584 115.784 115.172 117.272 116.348C118.784 117.524 119.636 119.084 119.828 121.028H116.228C116.108 120.068 115.604 119.228 114.716 118.508C113.828 117.764 112.652 117.392 111.188 117.392C109.82 117.392 108.704 117.752 107.84 118.472C106.976 119.168 106.544 120.152 106.544 121.424C106.544 122.336 106.796 123.08 107.3 123.656C107.828 124.232 108.464 124.676 109.208 124.988C109.976 125.276 111.044 125.612 112.412 125.996C114.068 126.452 115.4 126.908 116.408 127.364C117.416 127.796 118.28 128.48 119 129.416C119.72 130.328 120.08 131.576 120.08 133.16C120.08 134.384 119.756 135.536 119.108 136.616C118.46 137.696 117.5 138.572 116.228 139.244C114.956 139.916 113.456 140.252 111.728 140.252ZM142.397 120.272V140H139.121V137.084C138.497 138.092 137.621 138.884 136.493 139.46C135.389 140.012 134.165 140.288 132.821 140.288C131.285 140.288 129.905 139.976 128.681 139.352C127.457 138.704 126.485 137.744 125.765 136.472C125.069 135.2 124.721 133.652 124.721 131.828V120.272H127.961V131.396C127.961 133.34 128.453 134.84 129.437 135.896C130.421 136.928 131.765 137.444 133.469 137.444C135.221 137.444 136.601 136.904 137.609 135.824C138.617 134.744 139.121 133.172 139.121 131.108V120.272H142.397ZM146.704 130.064C146.704 128.048 147.112 126.284 147.928 124.772C148.744 123.236 149.86 122.048 151.276 121.208C152.716 120.368 154.312 119.948 156.064 119.948C157.792 119.948 159.292 120.32 160.564 121.064C161.836 121.808 162.784 122.744 163.408 123.872V120.272H166.72V140H163.408V136.328C162.76 137.48 161.788 138.44 160.492 139.208C159.22 139.952 157.732 140.324 156.028 140.324C154.276 140.324 152.692 139.892 151.276 139.028C149.86 138.164 148.744 136.952 147.928 135.392C147.112 133.832 146.704 132.056 146.704 130.064ZM163.408 130.1C163.408 128.612 163.108 127.316 162.508 126.212C161.908 125.108 161.092 124.268 160.06 123.692C159.052 123.092 157.936 122.792 156.712 122.792C155.488 122.792 154.372 123.08 153.364 123.656C152.356 124.232 151.552 125.072 150.952 126.176C150.352 127.28 150.052 128.576 150.052 130.064C150.052 131.576 150.352 132.896 150.952 134.024C151.552 135.128 152.356 135.98 153.364 136.58C154.372 137.156 155.488 137.444 156.712 137.444C157.936 137.444 159.052 137.156 160.06 136.58C161.092 135.98 161.908 135.128 162.508 134.024C163.108 132.896 163.408 131.588 163.408 130.1ZM180.63 130.1C180.63 128.06 181.038 126.284 181.854 124.772C182.67 123.236 183.798 122.048 185.238 121.208C186.702 120.368 188.37 119.948 190.242 119.948C192.666 119.948 194.658 120.536 196.218 121.712C197.802 122.888 198.846 124.52 199.35 126.608H195.822C195.486 125.408 194.826 124.46 193.842 123.764C192.882 123.068 191.682 122.72 190.242 122.72C188.37 122.72 186.858 123.368 185.706 124.664C184.554 125.936 183.978 127.748 183.978 130.1C183.978 132.476 184.554 134.312 185.706 135.608C186.858 136.904 188.37 137.552 190.242 137.552C191.682 137.552 192.882 137.216 193.842 136.544C194.802 135.872 195.462 134.912 195.822 133.664H199.35C198.822 135.68 197.766 137.3 196.182 138.524C194.598 139.724 192.618 140.324 190.242 140.324C188.37 140.324 186.702 139.904 185.238 139.064C183.798 138.224 182.67 137.036 181.854 135.5C181.038 133.964 180.63 132.164 180.63 130.1ZM202.497 130.064C202.497 128.048 202.905 126.284 203.721 124.772C204.537 123.236 205.653 122.048 207.069 121.208C208.509 120.368 210.105 119.948 211.857 119.948C213.585 119.948 215.085 120.32 216.357 121.064C217.629 121.808 218.577 122.744 219.201 123.872V120.272H222.513V140H219.201V136.328C218.553 137.48 217.581 138.44 216.285 139.208C215.013 139.952 213.525 140.324 211.821 140.324C210.069 140.324 208.485 139.892 207.069 139.028C205.653 138.164 204.537 136.952 203.721 135.392C202.905 133.832 202.497 132.056 202.497 130.064ZM219.201 130.1C219.201 128.612 218.901 127.316 218.301 126.212C217.701 125.108 216.885 124.268 215.853 123.692C214.845 123.092 213.729 122.792 212.505 122.792C211.281 122.792 210.165 123.08 209.157 123.656C208.149 124.232 207.345 125.072 206.745 126.176C206.145 127.28 205.845 128.576 205.845 130.064C205.845 131.576 206.145 132.896 206.745 134.024C207.345 135.128 208.149 135.98 209.157 136.58C210.165 137.156 211.281 137.444 212.505 137.444C213.729 137.444 214.845 137.156 215.853 136.58C216.885 135.98 217.701 135.128 218.301 134.024C218.901 132.896 219.201 131.588 219.201 130.1ZM231.325 123.476C231.901 122.348 232.717 121.472 233.773 120.848C234.853 120.224 236.161 119.912 237.697 119.912V123.296H236.833C233.161 123.296 231.325 125.288 231.325 129.272V140H228.049V120.272H231.325V123.476ZM245.475 122.972V134.6C245.475 135.56 245.679 136.244 246.087 136.652C246.495 137.036 247.203 137.228 248.211 137.228H250.623V140H247.671C245.847 140 244.479 139.58 243.567 138.74C242.655 137.9 242.199 136.52 242.199 134.6V122.972H239.643V120.272H242.199V115.304H245.475V120.272H250.623V122.972H245.475ZM272.592 129.38C272.592 130.004 272.556 130.664 272.484 131.36H256.716C256.836 133.304 257.496 134.828 258.696 135.932C259.92 137.012 261.396 137.552 263.124 137.552C264.54 137.552 265.716 137.228 266.652 136.58C267.612 135.908 268.284 135.02 268.668 133.916H272.196C271.668 135.812 270.612 137.36 269.028 138.56C267.444 139.736 265.476 140.324 263.124 140.324C261.252 140.324 259.572 139.904 258.084 139.064C256.62 138.224 255.468 137.036 254.628 135.5C253.788 133.94 253.368 132.14 253.368 130.1C253.368 128.06 253.776 126.272 254.592 124.736C255.408 123.2 256.548 122.024 258.012 121.208C259.5 120.368 261.204 119.948 263.124 119.948C264.996 119.948 266.652 120.356 268.092 121.172C269.532 121.988 270.636 123.116 271.404 124.556C272.196 125.972 272.592 127.58 272.592 129.38ZM269.208 128.696C269.208 127.448 268.932 126.38 268.38 125.492C267.828 124.58 267.072 123.896 266.112 123.44C265.176 122.96 264.132 122.72 262.98 122.72C261.324 122.72 259.908 123.248 258.732 124.304C257.58 125.36 256.92 126.824 256.752 128.696H269.208ZM278.609 117.068C277.985 117.068 277.457 116.852 277.025 116.42C276.593 115.988 276.377 115.46 276.377 114.836C276.377 114.212 276.593 113.684 277.025 113.252C277.457 112.82 277.985 112.604 278.609 112.604C279.209 112.604 279.713 112.82 280.121 113.252C280.553 113.684 280.769 114.212 280.769 114.836C280.769 115.46 280.553 115.988 280.121 116.42C279.713 116.852 279.209 117.068 278.609 117.068ZM280.193 120.272V140H276.917V120.272H280.193ZM289.052 123.476C289.628 122.348 290.444 121.472 291.5 120.848C292.58 120.224 293.888 119.912 295.424 119.912V123.296H294.56C290.888 123.296 289.052 125.288 289.052 129.272V140H285.776V120.272H289.052V123.476ZM297.982 130.064C297.982 128.048 298.39 126.284 299.206 124.772C300.022 123.236 301.138 122.048 302.554 121.208C303.994 120.368 305.59 119.948 307.342 119.948C309.07 119.948 310.57 120.32 311.842 121.064C313.114 121.808 314.062 122.744 314.686 123.872V120.272H317.998V140H314.686V136.328C314.038 137.48 313.066 138.44 311.77 139.208C310.498 139.952 309.01 140.324 307.306 140.324C305.554 140.324 303.97 139.892 302.554 139.028C301.138 138.164 300.022 136.952 299.206 135.392C298.39 133.832 297.982 132.056 297.982 130.064ZM314.686 130.1C314.686 128.612 314.386 127.316 313.786 126.212C313.186 125.108 312.37 124.268 311.338 123.692C310.33 123.092 309.214 122.792 307.99 122.792C306.766 122.792 305.65 123.08 304.642 123.656C303.634 124.232 302.83 125.072 302.23 126.176C301.63 127.28 301.33 128.576 301.33 130.064C301.33 131.576 301.63 132.896 302.23 134.024C302.83 135.128 303.634 135.98 304.642 136.58C305.65 137.156 306.766 137.444 307.99 137.444C309.214 137.444 310.33 137.156 311.338 136.58C312.37 135.98 313.186 135.128 313.786 134.024C314.386 132.896 314.686 131.588 314.686 130.1ZM331.907 130.064C331.907 128.048 332.315 126.284 333.131 124.772C333.947 123.236 335.063 122.048 336.479 121.208C337.919 120.368 339.527 119.948 341.303 119.948C342.839 119.948 344.267 120.308 345.587 121.028C346.907 121.724 347.915 122.648 348.611 123.8V113.36H351.923V140H348.611V136.292C347.963 137.468 347.003 138.44 345.731 139.208C344.459 139.952 342.971 140.324 341.267 140.324C339.515 140.324 337.919 139.892 336.479 139.028C335.063 138.164 333.947 136.952 333.131 135.392C332.315 133.832 331.907 132.056 331.907 130.064ZM348.611 130.1C348.611 128.612 348.311 127.316 347.711 126.212C347.111 125.108 346.295 124.268 345.263 123.692C344.255 123.092 343.139 122.792 341.915 122.792C340.691 122.792 339.575 123.08 338.567 123.656C337.559 124.232 336.755 125.072 336.155 126.176C335.555 127.28 335.255 128.576 335.255 130.064C335.255 131.576 335.555 132.896 336.155 134.024C336.755 135.128 337.559 135.98 338.567 136.58C339.575 137.156 340.691 137.444 341.915 137.444C343.139 137.444 344.255 137.156 345.263 136.58C346.295 135.98 347.111 135.128 347.711 134.024C348.311 132.896 348.611 131.588 348.611 130.1ZM375.46 129.38C375.46 130.004 375.424 130.664 375.352 131.36H359.584C359.704 133.304 360.364 134.828 361.564 135.932C362.788 137.012 364.264 137.552 365.992 137.552C367.408 137.552 368.584 137.228 369.52 136.58C370.48 135.908 371.152 135.02 371.536 133.916H375.064C374.536 135.812 373.48 137.36 371.896 138.56C370.312 139.736 368.344 140.324 365.992 140.324C364.12 140.324 362.44 139.904 360.952 139.064C359.488 138.224 358.336 137.036 357.496 135.5C356.656 133.94 356.236 132.14 356.236 130.1C356.236 128.06 356.644 126.272 357.46 124.736C358.276 123.2 359.416 122.024 360.88 121.208C362.368 120.368 364.072 119.948 365.992 119.948C367.864 119.948 369.52 120.356 370.96 121.172C372.4 121.988 373.504 123.116 374.272 124.556C375.064 125.972 375.46 127.58 375.46 129.38ZM372.076 128.696C372.076 127.448 371.8 126.38 371.248 125.492C370.696 124.58 369.94 123.896 368.98 123.44C368.044 122.96 367 122.72 365.848 122.72C364.192 122.72 362.776 123.248 361.6 124.304C360.448 125.36 359.788 126.824 359.62 128.696H372.076ZM414.833 115.088V140H411.557V121.424L403.277 140H400.973L392.657 121.388V140H389.381V115.088H392.909L402.125 135.68L411.341 115.088H414.833ZM438.389 129.38C438.389 130.004 438.353 130.664 438.281 131.36H422.513C422.633 133.304 423.293 134.828 424.493 135.932C425.717 137.012 427.193 137.552 428.921 137.552C430.337 137.552 431.513 137.228 432.449 136.58C433.409 135.908 434.081 135.02 434.465 133.916H437.993C437.465 135.812 436.409 137.36 434.825 138.56C433.241 139.736 431.273 140.324 428.921 140.324C427.049 140.324 425.369 139.904 423.881 139.064C422.417 138.224 421.265 137.036 420.425 135.5C419.585 133.94 419.165 132.14 419.165 130.1C419.165 128.06 419.573 126.272 420.389 124.736C421.205 123.2 422.345 122.024 423.809 121.208C425.297 120.368 427.001 119.948 428.921 119.948C430.793 119.948 432.449 120.356 433.889 121.172C435.329 121.988 436.433 123.116 437.201 124.556C437.993 125.972 438.389 127.58 438.389 129.38ZM435.005 128.696C435.005 127.448 434.729 126.38 434.177 125.492C433.625 124.58 432.869 123.896 431.909 123.44C430.973 122.96 429.929 122.72 428.777 122.72C427.121 122.72 425.705 123.248 424.529 124.304C423.377 125.36 422.717 126.824 422.549 128.696H435.005ZM466.437 119.912C467.973 119.912 469.341 120.236 470.541 120.884C471.741 121.508 472.689 122.456 473.385 123.728C474.081 125 474.429 126.548 474.429 128.372V140H471.189V128.84C471.189 126.872 470.697 125.372 469.713 124.34C468.753 123.284 467.445 122.756 465.789 122.756C464.085 122.756 462.729 123.308 461.721 124.412C460.713 125.492 460.209 127.064 460.209 129.128V140H456.969V128.84C456.969 126.872 456.477 125.372 455.493 124.34C454.533 123.284 453.225 122.756 451.569 122.756C449.865 122.756 448.509 123.308 447.501 124.412C446.493 125.492 445.989 127.064 445.989 129.128V140H442.713V120.272H445.989V123.116C446.637 122.084 447.501 121.292 448.581 120.74C449.685 120.188 450.897 119.912 452.217 119.912C453.873 119.912 455.337 120.284 456.609 121.028C457.881 121.772 458.829 122.864 459.453 124.304C460.005 122.912 460.917 121.832 462.189 121.064C463.461 120.296 464.877 119.912 466.437 119.912ZM483.079 123.944C483.751 122.768 484.735 121.808 486.031 121.064C487.327 120.32 488.803 119.948 490.459 119.948C492.235 119.948 493.831 120.368 495.247 121.208C496.663 122.048 497.779 123.236 498.595 124.772C499.411 126.284 499.819 128.048 499.819 130.064C499.819 132.056 499.411 133.832 498.595 135.392C497.779 136.952 496.651 138.164 495.211 139.028C493.795 139.892 492.211 140.324 490.459 140.324C488.755 140.324 487.255 139.952 485.959 139.208C484.687 138.464 483.727 137.516 483.079 136.364V140H479.803V113.36H483.079V123.944ZM496.471 130.064C496.471 128.576 496.171 127.28 495.571 126.176C494.971 125.072 494.155 124.232 493.123 123.656C492.115 123.08 490.999 122.792 489.775 122.792C488.575 122.792 487.459 123.092 486.427 123.692C485.419 124.268 484.603 125.12 483.979 126.248C483.379 127.352 483.079 128.636 483.079 130.1C483.079 131.588 483.379 132.896 483.979 134.024C484.603 135.128 485.419 135.98 486.427 136.58C487.459 137.156 488.575 137.444 489.775 137.444C490.999 137.444 492.115 137.156 493.123 136.58C494.155 135.98 494.971 135.128 495.571 134.024C496.171 132.896 496.471 131.576 496.471 130.064ZM507.407 123.476C507.983 122.348 508.799 121.472 509.855 120.848C510.935 120.224 512.243 119.912 513.779 119.912V123.296H512.915C509.243 123.296 507.407 125.288 507.407 129.272V140H504.131V120.272H507.407V123.476ZM526.165 140.324C524.317 140.324 522.637 139.904 521.125 139.064C519.637 138.224 518.461 137.036 517.597 135.5C516.757 133.94 516.337 132.14 516.337 130.1C516.337 128.084 516.769 126.308 517.633 124.772C518.521 123.212 519.721 122.024 521.233 121.208C522.745 120.368 524.437 119.948 526.309 119.948C528.181 119.948 529.873 120.368 531.385 121.208C532.897 122.024 534.085 123.2 534.949 124.736C535.837 126.272 536.281 128.06 536.281 130.1C536.281 132.14 535.825 133.94 534.913 135.5C534.025 137.036 532.813 138.224 531.277 139.064C529.741 139.904 528.037 140.324 526.165 140.324ZM526.165 137.444C527.341 137.444 528.445 137.168 529.477 136.616C530.509 136.064 531.337 135.236 531.961 134.132C532.609 133.028 532.933 131.684 532.933 130.1C532.933 128.516 532.621 127.172 531.997 126.068C531.373 124.964 530.557 124.148 529.549 123.62C528.541 123.068 527.449 122.792 526.273 122.792C525.073 122.792 523.969 123.068 522.961 123.62C521.977 124.148 521.185 124.964 520.585 126.068C519.985 127.172 519.685 128.516 519.685 130.1C519.685 131.708 519.973 133.064 520.549 134.168C521.149 135.272 521.941 136.1 522.925 136.652C523.909 137.18 524.989 137.444 526.165 137.444Z" fill="white"/>
<g clip-path="url(#clip0)">
<path d="M48.6992 47.8497C47.6276 47.277 46.4493 46.9316 45.2381 46.8353C44.8457 46.7999 44.6259 46.8078 44.4238 46.7999C42.5893 46.7293 39.2164 45.2479 39.1615 42.8444C39.1144 40.7037 41.7259 38.8064 44.4238 38.8064C47.0707 38.8064 49.2663 40.3152 49.6293 42.2714C49.7392 42.9052 50.4553 43.2996 51.093 43.1603C51.3637 43.1118 51.6045 42.959 51.7638 42.7349C51.923 42.5107 51.9879 42.233 51.9445 41.9614C51.4109 39.0379 48.2421 36.7854 44.4238 36.7854C40.2308 36.7854 36.8187 39.5009 36.8187 42.8385C36.8187 44.9163 38.1392 46.7528 40.1543 47.8438C41.724 48.6934 43.6135 48.8582 43.6135 48.8582C43.9745 48.8896 44.1786 48.8856 44.3512 48.8915C46.1544 48.9563 49.6312 50.4122 49.6881 52.8491C49.7392 54.9956 47.1158 56.9145 44.4297 56.8871C41.3218 56.8557 39.3047 54.2304 39.1968 52.4469V52.4292C39.1791 51.8504 38.6082 51.3971 37.9411 51.4305C37.2739 51.4638 36.7638 51.9877 36.8364 52.5685C37.1601 56.1513 40.5644 58.8786 44.4317 58.9041C48.4893 58.9296 52.0348 55.961 52.0348 52.8491C52.027 50.7771 50.7065 48.9406 48.6992 47.8497Z" fill="white"/>
<path d="M44.4219 62.5027C43.8686 62.5027 43.4173 62.1102 43.4173 61.6393V34.0621C43.4173 33.5853 43.8686 33.1968 44.4219 33.1968C44.9771 33.1968 45.4265 33.5892 45.4265 34.0621V61.6393C45.4265 62.1161 44.9771 62.5027 44.4219 62.5027Z" fill="white"/>
<path d="M54.7798 75.8645H34.0659C33.0849 75.8645 32.3 75.2209 32.3 74.4263C32.3 73.6316 33.0849 72.988 34.0659 72.988H54.7798C55.7608 72.988 56.5457 73.6316 56.5457 74.4263C56.5457 75.2209 55.7549 75.8645 54.7798 75.8645Z" fill="white"/>
<path d="M52.1741 80.4322H36.6736C35.6925 80.4322 34.9077 79.7887 34.9077 78.994C34.9077 78.1994 35.6925 77.5558 36.6736 77.5558H52.1741C53.1552 77.5558 53.94 78.1994 53.94 78.994C53.94 79.7887 53.1493 80.4322 52.1741 80.4322Z" fill="white"/>
<path d="M47.416 85H41.4297C40.4486 85 39.6638 84.3564 39.6638 83.5617C39.6638 82.7769 40.4486 82.1255 41.4297 82.1255H47.416C48.3971 82.1255 49.1819 82.7691 49.1819 83.5617C49.1819 84.3564 48.3912 85 47.416 85Z" fill="white"/>
<path d="M69.8075 45.3244C69.8065 49.4546 68.7974 53.5222 66.8679 57.174C64.9384 60.8257 62.1468 63.9514 58.7354 66.2796V66.2796C58.6981 66.3071 58.6589 66.3326 58.6196 66.3581C58.6117 66.3658 58.6024 66.3718 58.5921 66.3758C58.3139 66.5458 57.994 66.6354 57.668 66.6348C57.3119 66.6374 56.9633 66.5333 56.6668 66.3361C56.3704 66.1388 56.1398 65.8573 56.0047 65.5279C55.8697 65.1984 55.8363 64.8361 55.9089 64.4875C55.9815 64.1389 56.1568 63.82 56.4123 63.5719C56.5888 63.4562 56.7635 63.3365 56.9361 63.2148C60.7313 60.5601 63.5848 56.7682 65.0851 52.3865C66.5854 48.0047 66.6547 43.2596 65.2832 38.8358C63.9117 34.4121 61.1702 30.5384 57.4543 27.7739C53.7384 25.0093 49.2402 23.4968 44.6089 23.4545C39.9776 23.4123 35.4527 24.8425 31.6869 27.5388C27.9212 30.2351 25.1095 34.0581 23.6575 38.4561C22.2055 42.8541 22.1883 47.5997 23.6083 52.0081C25.0284 56.4165 27.8123 60.2598 31.5584 62.9833C31.6879 63.0795 31.8174 63.1795 31.9508 63.2639C32.2496 63.5623 32.4328 63.9571 32.4676 64.3779C32.5024 64.7988 32.3865 65.2183 32.1407 65.5617C31.8949 65.9051 31.5351 66.15 31.1255 66.2527C30.7159 66.3555 30.2831 66.3094 29.9043 66.1227C29.767 66.0265 29.6296 65.9265 29.4942 65.8303C26.2566 63.4798 23.621 60.3966 21.8027 56.8327C19.9845 53.2689 19.0351 49.3254 19.0323 45.3244C19.0323 31.3288 30.4125 19.9408 44.418 19.9408C58.4234 19.9408 69.8075 31.3229 69.8075 45.3244Z" fill="white"/>
<path d="M45.8915 1.46961C45.8915 0.657967 45.2335 0 44.4219 0C43.6102 0 42.9523 0.657967 42.9523 1.46961V12.1061C42.9523 12.9178 43.6102 13.5757 44.4219 13.5757C45.2335 13.5757 45.8915 12.9178 45.8915 12.1061V1.46961Z" fill="white"/>
<path d="M87.3741 44.7515C88.1858 44.7515 88.8438 44.0935 88.8438 43.2819C88.8438 42.4702 88.1858 41.8123 87.3741 41.8123H76.7376C75.926 41.8123 75.268 42.4702 75.268 43.2819C75.268 44.0935 75.926 44.7515 76.7376 44.7515H87.3741Z" fill="white"/>
<path d="M12.1061 44.7534C12.9178 44.7534 13.5758 44.0955 13.5758 43.2838C13.5758 42.4722 12.9178 41.8142 12.1061 41.8142H1.46961C0.65797 41.8142 2.86102e-06 42.4722 2.86102e-06 43.2838C2.86102e-06 44.0955 0.65797 44.7534 1.46961 44.7534H12.1061Z" fill="white"/>
<path d="M76.6381 16.0844C77.212 15.5105 77.212 14.58 76.6381 14.0061C76.0642 13.4322 75.1337 13.4322 74.5597 14.0061L67.0386 21.5273C66.4646 22.1012 66.4646 23.0317 67.0386 23.6056C67.6125 24.1795 68.543 24.1795 69.1169 23.6056L76.6381 16.0844Z" fill="white"/>
<path d="M15.3128 14.0054C14.7389 13.4315 13.8084 13.4315 13.2344 14.0054C12.6605 14.5793 12.6605 15.5098 13.2344 16.0837L20.7556 23.6049C21.3295 24.1788 22.26 24.1788 22.8339 23.6049C23.4079 23.031 23.4079 22.1005 22.8339 21.5265L15.3128 14.0054Z" fill="white"/>
</g>
<defs>
<clipPath id="clip0">
<rect width="88.8457" height="85" fill="white"/>
</clipPath>
</defs>
</svg>
