<svg width="464" height="293" viewBox="0 0 464 293" fill="none" xmlns="http://www.w3.org/2000/svg">
<g clip-path="url(#clip0)">
<path d="M225.257 70.0142C223.689 69.1762 221.965 68.6709 220.193 68.5299C219.619 68.4782 219.297 68.4897 219.001 68.4782C216.317 68.3749 211.382 66.2073 211.302 62.6904C211.233 59.5581 215.054 56.7819 219.001 56.7819C222.874 56.7819 226.087 58.9897 226.618 61.852C226.779 62.7794 227.827 63.3564 228.76 63.1526C229.156 63.0817 229.508 62.8582 229.741 62.5301C229.974 62.2021 230.069 61.7957 230.006 61.3984C229.225 57.1207 224.588 53.8248 219.001 53.8248C212.866 53.8248 207.874 57.7982 207.874 62.6817C207.874 65.7221 209.806 68.4093 212.754 70.0056C215.051 71.2487 217.816 71.4899 217.816 71.4899C218.344 71.5358 218.643 71.53 218.895 71.5387C221.534 71.6334 226.621 73.7637 226.704 77.3294C226.779 80.4702 222.94 83.278 219.01 83.2378C214.462 83.1919 211.511 79.3505 211.353 76.7408V76.715C211.327 75.8681 210.492 75.2049 209.516 75.2537C208.54 75.3025 207.793 76.069 207.899 76.9188C208.373 82.1612 213.354 86.1518 219.013 86.1892C224.95 86.2265 230.138 81.8827 230.138 77.3294C230.126 74.2977 228.194 71.6104 225.257 70.0142Z" fill="white"/>
<path d="M218.999 91.4545C218.189 91.4545 217.529 90.8803 217.529 90.1913V49.8399C217.529 49.1423 218.189 48.5739 218.999 48.5739C219.811 48.5739 220.468 49.148 220.468 49.8399V90.1913C220.468 90.889 219.811 91.4545 218.999 91.4545Z" fill="white"/>
<path d="M234.154 111.006H203.846C202.41 111.006 201.262 110.064 201.262 108.901C201.262 107.739 202.41 106.797 203.846 106.797H234.154C235.59 106.797 236.738 107.739 236.738 108.901C236.738 110.064 235.581 111.006 234.154 111.006Z" fill="white"/>
<path d="M230.342 117.689H207.661C206.226 117.689 205.077 116.748 205.077 115.585C205.077 114.422 206.226 113.48 207.661 113.48H230.342C231.777 113.48 232.926 114.422 232.926 115.585C232.926 116.748 231.769 117.689 230.342 117.689Z" fill="white"/>
<path d="M223.38 124.373H214.62C213.185 124.373 212.036 123.431 212.036 122.268C212.036 121.12 213.185 120.167 214.62 120.167H223.38C224.815 120.167 225.964 121.109 225.964 122.268C225.964 123.431 224.807 124.373 223.38 124.373Z" fill="white"/>
<path d="M256.143 66.3192C256.142 72.3626 254.665 78.3142 251.842 83.6576C249.019 89.0009 244.934 93.5744 239.942 96.9811V96.9811C239.888 97.0213 239.83 97.0586 239.773 97.0959C239.761 97.1071 239.748 97.1159 239.733 97.1218C239.326 97.3705 238.858 97.5017 238.38 97.5007C237.859 97.5045 237.349 97.3523 236.916 97.0637C236.482 96.775 236.144 96.3632 235.947 95.8811C235.749 95.399 235.7 94.8689 235.807 94.3588C235.913 93.8488 236.169 93.3822 236.543 93.0192C236.801 92.8498 237.057 92.6747 237.31 92.4967C242.863 88.6122 247.038 83.0639 249.233 76.6525C251.428 70.241 251.53 63.2979 249.523 56.825C247.516 50.3521 243.505 44.6842 238.068 40.639C232.631 36.5939 226.049 34.3807 219.272 34.3189C212.496 34.2571 205.875 36.3498 200.365 40.2951C194.855 44.2403 190.74 49.8342 188.616 56.2694C186.491 62.7046 186.466 69.6483 188.544 76.0988C190.622 82.5492 194.695 88.1727 200.177 92.1579C200.366 92.2986 200.556 92.445 200.751 92.5684C201.188 93.005 201.456 93.5827 201.507 94.1985C201.558 94.8143 201.388 95.4282 201.029 95.9306C200.669 96.4331 200.142 96.7914 199.543 96.9417C198.944 97.0921 198.311 97.0246 197.756 96.7514C197.555 96.6107 197.354 96.4643 197.156 96.3237C192.419 92.8843 188.562 88.373 185.902 83.1583C183.241 77.9436 181.852 72.1734 181.848 66.3192C181.848 45.8407 198.5 29.1776 218.993 29.1776C239.486 29.1776 256.143 45.8321 256.143 66.3192Z" fill="white"/>
<path d="M221.149 2.15035C221.149 0.962744 220.186 0 218.999 0C217.811 0 216.848 0.962744 216.848 2.15035V17.7138C216.848 18.9014 217.811 19.8642 218.999 19.8642C220.186 19.8642 221.149 18.9014 221.149 17.7138V2.15035Z" fill="white"/>
<path d="M281.847 65.4809C283.034 65.4809 283.997 64.5181 283.997 63.3305C283.997 62.1429 283.034 61.1802 281.847 61.1802H266.283C265.096 61.1802 264.133 62.1429 264.133 63.3305C264.133 64.5181 265.096 65.4809 266.283 65.4809H281.847Z" fill="white"/>
<path d="M171.714 65.4838C172.901 65.4838 173.864 64.5211 173.864 63.3335C173.864 62.1459 172.901 61.1831 171.714 61.1831H156.15C154.963 61.1831 154 62.1459 154 63.3335C154 64.5211 154.963 65.4838 156.15 65.4838H171.714Z" fill="white"/>
<path d="M266.138 23.535C266.977 22.6952 266.977 21.3337 266.138 20.4939C265.298 19.6542 263.936 19.6542 263.097 20.4939L252.092 31.499C251.252 32.3387 251.252 33.7003 252.092 34.54C252.931 35.3798 254.293 35.3798 255.133 34.54L266.138 23.535Z" fill="white"/>
<path d="M176.406 20.4929C175.566 19.6531 174.205 19.6531 173.365 20.4929C172.525 21.3327 172.525 22.6942 173.365 23.534L184.37 34.539C185.21 35.3788 186.571 35.3788 187.411 34.539C188.251 33.6992 188.251 32.3377 187.411 31.4979L176.406 20.4929Z" fill="white"/>
</g>
<path d="M44.62 214.52C44.62 215.24 44.08 215.6 43.27 215.6H35.08C33.46 215.6 32.38 215.15 31.57 213.8L18.61 192.65H11.68V213.35C11.68 214.7 11.14 215.6 9.61001 215.6H2.23001C0.700008 215.6 0.0700073 214.88 0.0700073 213.35V155.93C0.0700073 153.95 0.520009 153.32 2.50001 153.32H15.82C23.65 153.32 31.93 154.49 36.7 159.98C39.58 163.31 41.02 167.72 41.02 172.58C41.02 180.86 36.61 187.34 29.41 190.49L44.17 213.26C44.44 213.71 44.62 214.16 44.62 214.52V214.52ZM29.23 172.76C29.23 164.93 24.01 162.14 16.18 162.14H11.68V183.92H17.26C24.46 183.92 29.23 180.05 29.23 172.76ZM107.665 209.12C107.665 210.92 107.215 211.64 105.505 212.54C100.555 215.06 92.185 216.68 85.345 216.68C66.625 216.68 56.005 203.72 56.005 184.64C56.005 165.83 68.155 152.15 86.515 152.15C92.275 152.15 97.585 153.14 102.985 155.57C103.975 156.02 104.245 156.56 104.245 157.19C104.245 157.55 104.065 157.91 103.975 158.27L101.905 163.67C101.545 164.57 101.185 164.93 100.555 164.93C100.195 164.93 99.745 164.75 99.295 164.57C96.325 163.31 91.195 161.96 87.055 161.96C82.195 161.96 77.515 163.76 74.365 167.09C70.585 171.05 68.425 176.9 68.425 184.28C68.425 198.23 74.995 206.96 85.795 206.96C89.485 206.96 93.535 206.42 95.965 205.43V188.24H87.955C86.695 188.24 85.975 187.79 85.975 186.26V180.77C85.975 179.33 86.695 178.97 88.045 178.97H105.505C107.035 178.97 107.665 179.42 107.665 181.04V209.12V209.12ZM168.73 197.42C168.73 212 156.94 215.6 144.16 215.6H127.42C125.53 215.6 125.08 214.88 125.08 212.99V155.66C125.08 153.77 125.89 153.32 127.78 153.32H141.28C155.77 153.32 163.87 157.73 163.87 168.53C163.87 174.83 160.27 180.32 153.7 181.76V181.85C162.25 182.48 168.73 188.33 168.73 197.42ZM152.53 169.88C152.53 164.03 147.94 162.14 141.64 162.14H136.6V178.88H141.28C147.85 178.88 152.53 177.17 152.53 169.88ZM156.94 197.06C156.94 192.83 155.05 190.13 152.17 188.69C149.38 187.34 146.32 187.07 142.54 187.07H136.6V206.69H143.26C146.41 206.69 149.47 206.42 151.72 205.52C154.87 204.17 156.94 201.38 156.94 197.06ZM260.845 154.76C260.845 155.03 260.755 155.3 260.665 155.57L243.835 213.17C243.385 214.79 242.395 215.6 240.865 215.6H234.925C233.485 215.6 232.495 214.88 232.045 213.26L220.345 172.04H220.165L208.465 212.99C207.835 215.06 207.115 215.6 205.405 215.6H199.645C198.115 215.6 197.305 215.15 196.675 212.9L179.485 155.93C179.395 155.48 179.305 155.12 179.305 154.76C179.305 153.77 179.845 153.32 180.925 153.32H189.565C191.455 153.32 192.265 154.13 192.625 155.57L203.605 197.06H203.695L215.125 155.3C215.485 153.86 216.475 153.32 217.825 153.32H223.855C225.295 153.32 226.015 154.04 226.375 155.21L237.805 197.06H237.985L248.875 155.39C249.325 153.77 250.315 153.32 251.665 153.32H259.405C260.395 153.32 260.845 153.95 260.845 154.76V154.76ZM315.79 213.89C315.79 214.97 315.07 215.6 313.99 215.6H309.67C304.99 215.6 302.92 213.35 302.29 210.29H302.11C299.86 213.62 294.01 216.68 289.06 216.68C276.37 216.68 270.61 206.24 270.61 194.54C270.61 178.97 279.97 170.78 290.05 170.78C294.82 170.78 299.32 172.94 301.57 176L301.75 173.57C301.84 172.58 302.56 171.95 303.64 171.95H309.94C311.11 171.95 311.83 172.58 311.83 173.93V205.16C311.83 206.42 312.01 207.32 312.37 207.77C312.64 208.04 313 208.13 313.45 208.13H314.17C315.25 208.13 315.79 208.49 315.79 209.66V213.89V213.89ZM300.94 201.65V184.28C299.14 181.67 295.45 179.69 292.03 179.69C286.54 179.69 281.86 184.37 281.86 193.82C281.86 201.38 284.74 207.77 291.4 207.77C295.81 207.77 299.59 204.44 300.94 201.65V201.65ZM339.865 213.35C339.865 214.88 339.145 215.6 337.885 215.6H331.045C329.785 215.6 328.975 214.97 328.975 213.44V154.4C328.975 152.87 329.605 152.42 330.775 152.24L337.255 151.34C337.435 151.34 337.705 151.25 337.885 151.25C338.965 151.25 339.865 151.79 339.865 153.23V213.35V213.35ZM367.45 213.35C367.45 214.88 366.73 215.6 365.47 215.6H358.63C357.37 215.6 356.56 214.97 356.56 213.44V154.4C356.56 152.87 357.19 152.42 358.36 152.24L364.84 151.34C365.02 151.34 365.29 151.25 365.47 151.25C366.55 151.25 367.45 151.79 367.45 153.23V213.35ZM422.305 193.64C422.305 195.8 421.585 196.25 419.335 196.25H392.965C393.685 203.18 398.725 207.95 405.835 207.95C409.615 207.95 413.575 207.05 416.905 205.79C417.265 205.7 417.535 205.52 417.895 205.52C418.525 205.52 418.975 205.88 419.155 206.6L420.415 211.19C420.505 211.64 420.595 212 420.595 212.27C420.595 212.9 420.235 213.35 419.155 213.8C414.745 215.78 408.715 216.68 404.035 216.68C389.905 216.68 381.535 207.68 381.535 193.64C381.535 180.14 390.445 170.78 403.855 170.78C409.345 170.78 413.845 172.85 416.995 176.18C421.135 180.5 422.305 186.17 422.305 192.29V193.64V193.64ZM411.595 189.14V188.15C411.415 183.47 408.715 179.15 403.225 179.15C397.375 179.15 393.865 183.83 393.145 189.14H411.595ZM463.03 212.9C463.03 213.8 462.58 214.25 461.68 214.61C458.89 215.78 455.2 216.68 451.6 216.68C447.01 216.68 443.05 215.51 440.8 212.9C438.01 209.75 437.92 206.06 437.92 199.49V179.42H433.69C431.98 179.42 431.71 179.06 431.71 177.17V173.75C431.71 172.67 432.25 171.95 433.33 171.95H437.92V162.14C437.92 160.61 438.73 160.16 440.17 159.98L446.65 159.17H447.1C448.27 159.17 448.81 159.8 448.81 161.15V171.95H458.98C460.06 171.95 460.69 172.31 460.69 173.48V177.71C460.69 178.79 459.97 179.42 458.89 179.42H448.81V200.03C448.81 202.73 448.99 204.71 449.98 206.15C450.79 207.32 452.05 208.04 454.21 208.04C456.46 208.04 458.35 207.5 459.97 206.96C460.33 206.87 460.6 206.78 460.87 206.78C461.5 206.78 461.86 207.14 462.04 207.86L462.94 212.36C463.03 212.63 463.03 212.72 463.03 212.9V212.9Z" fill="white"/>
<path d="M10.728 283.252C9.072 283.252 7.584 282.964 6.264 282.388C4.968 281.788 3.948 280.972 3.204 279.94C2.46 278.884 2.076 277.672 2.052 276.304H5.544C5.664 277.48 6.144 278.476 6.984 279.292C7.848 280.084 9.096 280.48 10.728 280.48C12.288 280.48 13.512 280.096 14.4 279.328C15.312 278.536 15.768 277.528 15.768 276.304C15.768 275.344 15.504 274.564 14.976 273.964C14.448 273.364 13.788 272.908 12.996 272.596C12.204 272.284 11.136 271.948 9.792 271.588C8.136 271.156 6.804 270.724 5.796 270.292C4.812 269.86 3.96 269.188 3.24 268.276C2.544 267.34 2.196 266.092 2.196 264.532C2.196 263.164 2.544 261.952 3.24 260.896C3.936 259.84 4.908 259.024 6.156 258.448C7.428 257.872 8.88 257.584 10.512 257.584C12.864 257.584 14.784 258.172 16.272 259.348C17.784 260.524 18.636 262.084 18.828 264.028H15.228C15.108 263.068 14.604 262.228 13.716 261.508C12.828 260.764 11.652 260.392 10.188 260.392C8.82 260.392 7.704 260.752 6.84 261.472C5.976 262.168 5.544 263.152 5.544 264.424C5.544 265.336 5.796 266.08 6.3 266.656C6.828 267.232 7.464 267.676 8.208 267.988C8.976 268.276 10.044 268.612 11.412 268.996C13.068 269.452 14.4 269.908 15.408 270.364C16.416 270.796 17.28 271.48 18 272.416C18.72 273.328 19.08 274.576 19.08 276.16C19.08 277.384 18.756 278.536 18.108 279.616C17.46 280.696 16.5 281.572 15.228 282.244C13.956 282.916 12.456 283.252 10.728 283.252ZM41.3969 263.272V283H38.1209V280.084C37.4969 281.092 36.6209 281.884 35.4929 282.46C34.3889 283.012 33.1649 283.288 31.8209 283.288C30.2849 283.288 28.9049 282.976 27.6809 282.352C26.4569 281.704 25.4849 280.744 24.7649 279.472C24.0689 278.2 23.7209 276.652 23.7209 274.828V263.272H26.9609V274.396C26.9609 276.34 27.4529 277.84 28.4369 278.896C29.4209 279.928 30.7649 280.444 32.4689 280.444C34.2209 280.444 35.6009 279.904 36.6089 278.824C37.6169 277.744 38.1209 276.172 38.1209 274.108V263.272H41.3969ZM45.7043 273.064C45.7043 271.048 46.1123 269.284 46.9283 267.772C47.7443 266.236 48.8603 265.048 50.2763 264.208C51.7163 263.368 53.3123 262.948 55.0643 262.948C56.7923 262.948 58.2923 263.32 59.5643 264.064C60.8363 264.808 61.7843 265.744 62.4083 266.872V263.272H65.7203V283H62.4083V279.328C61.7603 280.48 60.7883 281.44 59.4923 282.208C58.2203 282.952 56.7323 283.324 55.0283 283.324C53.2763 283.324 51.6923 282.892 50.2763 282.028C48.8603 281.164 47.7443 279.952 46.9283 278.392C46.1123 276.832 45.7043 275.056 45.7043 273.064ZM62.4083 273.1C62.4083 271.612 62.1083 270.316 61.5083 269.212C60.9083 268.108 60.0923 267.268 59.0603 266.692C58.0523 266.092 56.9363 265.792 55.7123 265.792C54.4883 265.792 53.3723 266.08 52.3643 266.656C51.3563 267.232 50.5523 268.072 49.9523 269.176C49.3523 270.28 49.0523 271.576 49.0523 273.064C49.0523 274.576 49.3523 275.896 49.9523 277.024C50.5523 278.128 51.3563 278.98 52.3643 279.58C53.3723 280.156 54.4883 280.444 55.7123 280.444C56.9363 280.444 58.0523 280.156 59.0603 279.58C60.0923 278.98 60.9083 278.128 61.5083 277.024C62.1083 275.896 62.4083 274.588 62.4083 273.1ZM79.63 273.1C79.63 271.06 80.038 269.284 80.854 267.772C81.67 266.236 82.798 265.048 84.238 264.208C85.702 263.368 87.37 262.948 89.242 262.948C91.666 262.948 93.658 263.536 95.218 264.712C96.802 265.888 97.846 267.52 98.35 269.608H94.822C94.486 268.408 93.826 267.46 92.842 266.764C91.882 266.068 90.682 265.72 89.242 265.72C87.37 265.72 85.858 266.368 84.706 267.664C83.554 268.936 82.978 270.748 82.978 273.1C82.978 275.476 83.554 277.312 84.706 278.608C85.858 279.904 87.37 280.552 89.242 280.552C90.682 280.552 91.882 280.216 92.842 279.544C93.802 278.872 94.462 277.912 94.822 276.664H98.35C97.822 278.68 96.766 280.3 95.182 281.524C93.598 282.724 91.618 283.324 89.242 283.324C87.37 283.324 85.702 282.904 84.238 282.064C82.798 281.224 81.67 280.036 80.854 278.5C80.038 276.964 79.63 275.164 79.63 273.1ZM101.497 273.064C101.497 271.048 101.905 269.284 102.721 267.772C103.537 266.236 104.653 265.048 106.069 264.208C107.509 263.368 109.105 262.948 110.857 262.948C112.585 262.948 114.085 263.32 115.357 264.064C116.629 264.808 117.577 265.744 118.201 266.872V263.272H121.513V283H118.201V279.328C117.553 280.48 116.581 281.44 115.285 282.208C114.013 282.952 112.525 283.324 110.821 283.324C109.069 283.324 107.485 282.892 106.069 282.028C104.653 281.164 103.537 279.952 102.721 278.392C101.905 276.832 101.497 275.056 101.497 273.064ZM118.201 273.1C118.201 271.612 117.901 270.316 117.301 269.212C116.701 268.108 115.885 267.268 114.853 266.692C113.845 266.092 112.729 265.792 111.505 265.792C110.281 265.792 109.165 266.08 108.157 266.656C107.149 267.232 106.345 268.072 105.745 269.176C105.145 270.28 104.845 271.576 104.845 273.064C104.845 274.576 105.145 275.896 105.745 277.024C106.345 278.128 107.149 278.98 108.157 279.58C109.165 280.156 110.281 280.444 111.505 280.444C112.729 280.444 113.845 280.156 114.853 279.58C115.885 278.98 116.701 278.128 117.301 277.024C117.901 275.896 118.201 274.588 118.201 273.1ZM130.325 266.476C130.901 265.348 131.717 264.472 132.773 263.848C133.853 263.224 135.161 262.912 136.697 262.912V266.296H135.833C132.161 266.296 130.325 268.288 130.325 272.272V283H127.049V263.272H130.325V266.476ZM144.475 265.972V277.6C144.475 278.56 144.679 279.244 145.087 279.652C145.495 280.036 146.203 280.228 147.211 280.228H149.623V283H146.671C144.847 283 143.479 282.58 142.567 281.74C141.655 280.9 141.199 279.52 141.199 277.6V265.972H138.643V263.272H141.199V258.304H144.475V263.272H149.623V265.972H144.475ZM171.592 272.38C171.592 273.004 171.556 273.664 171.484 274.36H155.716C155.836 276.304 156.496 277.828 157.696 278.932C158.92 280.012 160.396 280.552 162.124 280.552C163.54 280.552 164.716 280.228 165.652 279.58C166.612 278.908 167.284 278.02 167.668 276.916H171.196C170.668 278.812 169.612 280.36 168.028 281.56C166.444 282.736 164.476 283.324 162.124 283.324C160.252 283.324 158.572 282.904 157.084 282.064C155.62 281.224 154.468 280.036 153.628 278.5C152.788 276.94 152.368 275.14 152.368 273.1C152.368 271.06 152.776 269.272 153.592 267.736C154.408 266.2 155.548 265.024 157.012 264.208C158.5 263.368 160.204 262.948 162.124 262.948C163.996 262.948 165.652 263.356 167.092 264.172C168.532 264.988 169.636 266.116 170.404 267.556C171.196 268.972 171.592 270.58 171.592 272.38ZM168.208 271.696C168.208 270.448 167.932 269.38 167.38 268.492C166.828 267.58 166.072 266.896 165.112 266.44C164.176 265.96 163.132 265.72 161.98 265.72C160.324 265.72 158.908 266.248 157.732 267.304C156.58 268.36 155.92 269.824 155.752 271.696H168.208ZM177.609 260.068C176.985 260.068 176.457 259.852 176.025 259.42C175.593 258.988 175.377 258.46 175.377 257.836C175.377 257.212 175.593 256.684 176.025 256.252C176.457 255.82 176.985 255.604 177.609 255.604C178.209 255.604 178.713 255.82 179.121 256.252C179.553 256.684 179.769 257.212 179.769 257.836C179.769 258.46 179.553 258.988 179.121 259.42C178.713 259.852 178.209 260.068 177.609 260.068ZM179.193 263.272V283H175.917V263.272H179.193ZM188.052 266.476C188.628 265.348 189.444 264.472 190.5 263.848C191.58 263.224 192.888 262.912 194.424 262.912V266.296H193.56C189.888 266.296 188.052 268.288 188.052 272.272V283H184.776V263.272H188.052V266.476ZM196.982 273.064C196.982 271.048 197.39 269.284 198.206 267.772C199.022 266.236 200.138 265.048 201.554 264.208C202.994 263.368 204.59 262.948 206.342 262.948C208.07 262.948 209.57 263.32 210.842 264.064C212.114 264.808 213.062 265.744 213.686 266.872V263.272H216.998V283H213.686V279.328C213.038 280.48 212.066 281.44 210.77 282.208C209.498 282.952 208.01 283.324 206.306 283.324C204.554 283.324 202.97 282.892 201.554 282.028C200.138 281.164 199.022 279.952 198.206 278.392C197.39 276.832 196.982 275.056 196.982 273.064ZM213.686 273.1C213.686 271.612 213.386 270.316 212.786 269.212C212.186 268.108 211.37 267.268 210.338 266.692C209.33 266.092 208.214 265.792 206.99 265.792C205.766 265.792 204.65 266.08 203.642 266.656C202.634 267.232 201.83 268.072 201.23 269.176C200.63 270.28 200.33 271.576 200.33 273.064C200.33 274.576 200.63 275.896 201.23 277.024C201.83 278.128 202.634 278.98 203.642 279.58C204.65 280.156 205.766 280.444 206.99 280.444C208.214 280.444 209.33 280.156 210.338 279.58C211.37 278.98 212.186 278.128 212.786 277.024C213.386 275.896 213.686 274.588 213.686 273.1ZM230.907 273.064C230.907 271.048 231.315 269.284 232.131 267.772C232.947 266.236 234.063 265.048 235.479 264.208C236.919 263.368 238.527 262.948 240.303 262.948C241.839 262.948 243.267 263.308 244.587 264.028C245.907 264.724 246.915 265.648 247.611 266.8V256.36H250.923V283H247.611V279.292C246.963 280.468 246.003 281.44 244.731 282.208C243.459 282.952 241.971 283.324 240.267 283.324C238.515 283.324 236.919 282.892 235.479 282.028C234.063 281.164 232.947 279.952 232.131 278.392C231.315 276.832 230.907 275.056 230.907 273.064ZM247.611 273.1C247.611 271.612 247.311 270.316 246.711 269.212C246.111 268.108 245.295 267.268 244.263 266.692C243.255 266.092 242.139 265.792 240.915 265.792C239.691 265.792 238.575 266.08 237.567 266.656C236.559 267.232 235.755 268.072 235.155 269.176C234.555 270.28 234.255 271.576 234.255 273.064C234.255 274.576 234.555 275.896 235.155 277.024C235.755 278.128 236.559 278.98 237.567 279.58C238.575 280.156 239.691 280.444 240.915 280.444C242.139 280.444 243.255 280.156 244.263 279.58C245.295 278.98 246.111 278.128 246.711 277.024C247.311 275.896 247.611 274.588 247.611 273.1ZM274.46 272.38C274.46 273.004 274.424 273.664 274.352 274.36H258.584C258.704 276.304 259.364 277.828 260.564 278.932C261.788 280.012 263.264 280.552 264.992 280.552C266.408 280.552 267.584 280.228 268.52 279.58C269.48 278.908 270.152 278.02 270.536 276.916H274.064C273.536 278.812 272.48 280.36 270.896 281.56C269.312 282.736 267.344 283.324 264.992 283.324C263.12 283.324 261.44 282.904 259.952 282.064C258.488 281.224 257.336 280.036 256.496 278.5C255.656 276.94 255.236 275.14 255.236 273.1C255.236 271.06 255.644 269.272 256.46 267.736C257.276 266.2 258.416 265.024 259.88 264.208C261.368 263.368 263.072 262.948 264.992 262.948C266.864 262.948 268.52 263.356 269.96 264.172C271.4 264.988 272.504 266.116 273.272 267.556C274.064 268.972 274.46 270.58 274.46 272.38ZM271.076 271.696C271.076 270.448 270.8 269.38 270.248 268.492C269.696 267.58 268.94 266.896 267.98 266.44C267.044 265.96 266 265.72 264.848 265.72C263.192 265.72 261.776 266.248 260.6 267.304C259.448 268.36 258.788 269.824 258.62 271.696H271.076ZM313.833 258.088V283H310.557V264.424L302.277 283H299.973L291.657 264.388V283H288.381V258.088H291.909L301.125 278.68L310.341 258.088H313.833ZM337.389 272.38C337.389 273.004 337.353 273.664 337.281 274.36H321.513C321.633 276.304 322.293 277.828 323.493 278.932C324.717 280.012 326.193 280.552 327.921 280.552C329.337 280.552 330.513 280.228 331.449 279.58C332.409 278.908 333.081 278.02 333.465 276.916H336.993C336.465 278.812 335.409 280.36 333.825 281.56C332.241 282.736 330.273 283.324 327.921 283.324C326.049 283.324 324.369 282.904 322.881 282.064C321.417 281.224 320.265 280.036 319.425 278.5C318.585 276.94 318.165 275.14 318.165 273.1C318.165 271.06 318.573 269.272 319.389 267.736C320.205 266.2 321.345 265.024 322.809 264.208C324.297 263.368 326.001 262.948 327.921 262.948C329.793 262.948 331.449 263.356 332.889 264.172C334.329 264.988 335.433 266.116 336.201 267.556C336.993 268.972 337.389 270.58 337.389 272.38ZM334.005 271.696C334.005 270.448 333.729 269.38 333.177 268.492C332.625 267.58 331.869 266.896 330.909 266.44C329.973 265.96 328.929 265.72 327.777 265.72C326.121 265.72 324.705 266.248 323.529 267.304C322.377 268.36 321.717 269.824 321.549 271.696H334.005ZM365.437 262.912C366.973 262.912 368.341 263.236 369.541 263.884C370.741 264.508 371.689 265.456 372.385 266.728C373.081 268 373.429 269.548 373.429 271.372V283H370.189V271.84C370.189 269.872 369.697 268.372 368.713 267.34C367.753 266.284 366.445 265.756 364.789 265.756C363.085 265.756 361.729 266.308 360.721 267.412C359.713 268.492 359.209 270.064 359.209 272.128V283H355.969V271.84C355.969 269.872 355.477 268.372 354.493 267.34C353.533 266.284 352.225 265.756 350.569 265.756C348.865 265.756 347.509 266.308 346.501 267.412C345.493 268.492 344.989 270.064 344.989 272.128V283H341.713V263.272H344.989V266.116C345.637 265.084 346.501 264.292 347.581 263.74C348.685 263.188 349.897 262.912 351.217 262.912C352.873 262.912 354.337 263.284 355.609 264.028C356.881 264.772 357.829 265.864 358.453 267.304C359.005 265.912 359.917 264.832 361.189 264.064C362.461 263.296 363.877 262.912 365.437 262.912ZM382.079 266.944C382.751 265.768 383.735 264.808 385.031 264.064C386.327 263.32 387.803 262.948 389.459 262.948C391.235 262.948 392.831 263.368 394.247 264.208C395.663 265.048 396.779 266.236 397.595 267.772C398.411 269.284 398.819 271.048 398.819 273.064C398.819 275.056 398.411 276.832 397.595 278.392C396.779 279.952 395.651 281.164 394.211 282.028C392.795 282.892 391.211 283.324 389.459 283.324C387.755 283.324 386.255 282.952 384.959 282.208C383.687 281.464 382.727 280.516 382.079 279.364V283H378.803V256.36H382.079V266.944ZM395.471 273.064C395.471 271.576 395.171 270.28 394.571 269.176C393.971 268.072 393.155 267.232 392.123 266.656C391.115 266.08 389.999 265.792 388.775 265.792C387.575 265.792 386.459 266.092 385.427 266.692C384.419 267.268 383.603 268.12 382.979 269.248C382.379 270.352 382.079 271.636 382.079 273.1C382.079 274.588 382.379 275.896 382.979 277.024C383.603 278.128 384.419 278.98 385.427 279.58C386.459 280.156 387.575 280.444 388.775 280.444C389.999 280.444 391.115 280.156 392.123 279.58C393.155 278.98 393.971 278.128 394.571 277.024C395.171 275.896 395.471 274.576 395.471 273.064ZM406.407 266.476C406.983 265.348 407.799 264.472 408.855 263.848C409.935 263.224 411.243 262.912 412.779 262.912V266.296H411.915C408.243 266.296 406.407 268.288 406.407 272.272V283H403.131V263.272H406.407V266.476ZM425.165 283.324C423.317 283.324 421.637 282.904 420.125 282.064C418.637 281.224 417.461 280.036 416.597 278.5C415.757 276.94 415.337 275.14 415.337 273.1C415.337 271.084 415.769 269.308 416.633 267.772C417.521 266.212 418.721 265.024 420.233 264.208C421.745 263.368 423.437 262.948 425.309 262.948C427.181 262.948 428.873 263.368 430.385 264.208C431.897 265.024 433.085 266.2 433.949 267.736C434.837 269.272 435.281 271.06 435.281 273.1C435.281 275.14 434.825 276.94 433.913 278.5C433.025 280.036 431.813 281.224 430.277 282.064C428.741 282.904 427.037 283.324 425.165 283.324ZM425.165 280.444C426.341 280.444 427.445 280.168 428.477 279.616C429.509 279.064 430.337 278.236 430.961 277.132C431.609 276.028 431.933 274.684 431.933 273.1C431.933 271.516 431.621 270.172 430.997 269.068C430.373 267.964 429.557 267.148 428.549 266.62C427.541 266.068 426.449 265.792 425.273 265.792C424.073 265.792 422.969 266.068 421.961 266.62C420.977 267.148 420.185 267.964 419.585 269.068C418.985 270.172 418.685 271.516 418.685 273.1C418.685 274.708 418.973 276.064 419.549 277.168C420.149 278.272 420.941 279.1 421.925 279.652C422.909 280.18 423.989 280.444 425.165 280.444Z" fill="white"/>
<defs>
<clipPath id="clip0">
<rect width="130" height="124.373" fill="white" transform="translate(154)"/>
</clipPath>
</defs>
</svg>
