<svg width="20" height="20" viewBox="0 0 20 20" fill="none" xmlns="http://www.w3.org/2000/svg">
<g clip-path="url(#clip0)">
<path d="M13.8392 11.868C16.24 8.47788 15.4371 3.78356 12.047 1.38335C8.65684 -1.01686 3.96252 -0.214494 1.56231 3.1762C-0.837903 6.56632 -0.0355384 11.2601 3.35515 13.6603C5.77486 15.3734 8.974 15.5053 11.5262 13.9981L17.0716 19.5103C17.6704 20.1406 18.6666 20.1658 19.2969 19.567C19.9272 18.9688 19.9525 17.9726 19.3543 17.3423C19.3353 17.3222 19.317 17.3039 19.2969 17.285L13.8392 11.868ZM7.69618 12.3819C5.01724 12.3825 2.84529 10.2122 2.84357 7.53328C2.84299 4.85434 5.01322 2.68239 7.69274 2.68124C10.3682 2.6801 12.539 4.84688 12.5442 7.52239C12.5488 10.2019 10.3797 12.3773 7.69962 12.3819C7.69847 12.3819 7.6979 12.3819 7.69618 12.3819Z" fill="white"/>
</g>
<defs>
<clipPath id="clip0">
<rect width="20" height="20" fill="white"/>
</clipPath>
</defs>
</svg>
