<svg width="25" height="25" viewBox="0 0 25 25" fill="none" xmlns="http://www.w3.org/2000/svg">
<path d="M10.6596 13.3909C10.6608 13.3897 10.6616 13.3881 10.6627 13.3869L17.5877 6.46215C17.6221 6.42782 17.6487 6.38657 17.6658 6.34115C17.683 6.29572 17.6903 6.24717 17.6872 6.19872C17.6841 6.15027 17.6707 6.10303 17.6479 6.06015C17.6252 6.01727 17.5935 5.97973 17.5551 5.95004C16.11 4.82664 14.3304 4.21924 12.5 4.22465C10.306 4.22713 8.20259 5.09979 6.65119 6.65119C5.09979 8.20259 4.22713 10.306 4.22465 12.5C4.21915 14.3304 4.82656 16.1099 5.95004 17.5549C5.97973 17.5933 6.01725 17.625 6.06012 17.6478C6.10299 17.6706 6.15022 17.684 6.19867 17.6871H6.22054C6.26542 17.6871 6.30986 17.6783 6.35131 17.6611C6.39277 17.6439 6.43043 17.6187 6.46215 17.587L10.6565 13.3934L10.6596 13.3909ZM9.63011 13.453L6.92074 10.6934L10.7959 6.88851L13.4705 9.61254L13.162 9.92113L11.5311 8.26097C11.4996 8.22893 11.4622 8.20339 11.4209 8.18583C11.3795 8.16827 11.3352 8.15903 11.2903 8.15863C11.2453 8.15738 11.2005 8.16541 11.1587 8.18221C11.117 8.19901 11.0791 8.22422 11.0475 8.25629C10.9767 8.32559 10.8814 8.364 10.7823 8.36309C10.6833 8.36217 10.5886 8.32201 10.5192 8.2514C10.4878 8.21937 10.4503 8.19384 10.4091 8.17628C10.3678 8.15872 10.3234 8.14947 10.2786 8.14906C10.1884 8.1503 10.1019 8.18512 10.036 8.24672L8.29242 9.95843C8.26038 9.98988 8.23485 10.0273 8.21728 10.0686C8.19972 10.1099 8.19046 10.1543 8.19004 10.1992C8.18963 10.2441 8.19806 10.2886 8.21485 10.3303C8.23165 10.3719 8.25648 10.4098 8.28793 10.4418C8.32232 10.4769 8.34948 10.5183 8.36785 10.5638C8.38622 10.6093 8.39544 10.658 8.39499 10.7071C8.39453 10.7562 8.38441 10.8047 8.36521 10.8499C8.346 10.895 8.31808 10.936 8.28304 10.9703C8.21841 11.0339 8.18165 11.1205 8.18085 11.2112C8.18004 11.3018 8.21526 11.3891 8.27875 11.4537L9.9389 13.1446L9.63011 13.453ZM8.96605 11.1784C9.03823 11.0338 9.0765 10.8747 9.07796 10.7131C9.07941 10.5515 9.04401 10.3918 8.97445 10.2459L10.3104 8.93441C10.4548 9.00703 10.614 9.04533 10.7756 9.04633C10.937 9.04681 11.0965 9.01152 11.2426 8.943L12.678 10.4045L10.4221 12.661L8.96605 11.1784ZM6.2598 16.8229C5.37516 15.5554 4.90317 14.0457 4.90824 12.5C4.91051 10.4873 5.71109 8.55758 7.13434 7.13434C8.55758 5.71109 10.4873 4.91051 12.5 4.90824C14.0458 4.90343 15.5554 5.37562 16.8229 6.26039L13.9539 9.12914L11.0438 6.16566C11.0123 6.13363 10.9749 6.10812 10.9336 6.09057C10.8922 6.07302 10.8479 6.06378 10.803 6.06338C10.7581 6.06299 10.7136 6.07143 10.6719 6.08824C10.6303 6.10506 10.5924 6.1299 10.5604 6.16136L6.19789 10.4452C6.16585 10.4766 6.14032 10.514 6.12275 10.5554C6.10519 10.5967 6.09593 10.641 6.09551 10.6859C6.0951 10.7308 6.10353 10.7753 6.12032 10.817C6.13712 10.8586 6.16195 10.8965 6.1934 10.9286L9.14672 13.9364L6.2598 16.8229Z" fill="white"/>
<path d="M19.0501 7.44495C19.0204 7.40649 18.9829 7.3748 18.94 7.35199C18.8971 7.32918 18.8499 7.31579 18.8014 7.3127C18.7529 7.30961 18.7044 7.31691 18.6589 7.33409C18.6135 7.35127 18.5723 7.37795 18.538 7.41234L15.1346 10.8155L15.1327 10.8172L15.1305 10.8198L14.3434 11.6067L14.3405 11.609L14.3376 11.6127L7.41238 18.5377C7.37805 18.5721 7.35142 18.6133 7.33428 18.6587C7.31713 18.7041 7.30986 18.7527 7.31295 18.8012C7.31603 18.8496 7.32941 18.8968 7.35217 18.9397C7.37494 18.9826 7.40659 19.0201 7.445 19.0498C8.89012 20.1732 10.6697 20.7806 12.5001 20.7752C14.6941 20.7727 16.7975 19.9001 18.3489 18.3487C19.9003 16.7973 20.773 14.6938 20.7755 12.4998C20.781 10.6695 20.1736 8.88996 19.0501 7.44495ZM11.8382 15.078L13.469 16.7381C13.5005 16.7702 13.5379 16.7957 13.5792 16.8132C13.6206 16.8308 13.6649 16.8401 13.7098 16.8405H13.713C13.8026 16.8406 13.8886 16.8055 13.9526 16.7428C14.0236 16.6738 14.1187 16.6354 14.2177 16.6358C14.2668 16.6361 14.3153 16.6461 14.3605 16.6653C14.4057 16.6846 14.4466 16.7125 14.4809 16.7477C14.5123 16.7797 14.5498 16.8052 14.5911 16.8228C14.6323 16.8404 14.6767 16.8496 14.7216 16.85H14.7249C14.8144 16.8502 14.9003 16.8151 14.9641 16.7524L16.7077 15.0407C16.7397 15.0092 16.7653 14.9718 16.7828 14.9305C16.8004 14.8891 16.8096 14.8448 16.8101 14.7999C16.8105 14.755 16.8021 14.7105 16.7853 14.6688C16.7685 14.6272 16.7436 14.5893 16.7122 14.5573C16.6778 14.5222 16.6506 14.4808 16.6323 14.4353C16.6139 14.3898 16.6047 14.3411 16.6051 14.292C16.6056 14.2429 16.6157 14.1944 16.6349 14.1492C16.6541 14.1041 16.682 14.0631 16.7171 14.0287C16.7817 13.9652 16.8185 13.8786 16.8193 13.7879C16.8201 13.6973 16.7849 13.61 16.7214 13.5453L15.0612 11.8545L15.3698 11.5459L18.0794 14.3065L14.2042 18.1114L11.5296 15.3871L11.8382 15.078ZM14.578 12.3389L16.0335 13.8215C15.9613 13.9661 15.923 14.1252 15.9216 14.2868C15.9201 14.4483 15.9555 14.6081 16.0251 14.7539L14.6891 16.0655C14.5447 15.9928 14.3855 15.9545 14.2239 15.9535C14.0621 15.9497 13.9018 15.9852 13.7567 16.0569L12.3216 14.5951L14.578 12.3389ZM12.5001 20.0916C10.9543 20.0965 9.44471 19.6243 8.17722 18.7395L11.0462 15.8707L13.9563 18.8342C14.02 18.8989 14.1066 18.9357 14.1973 18.9366H14.1993C14.2888 18.9367 14.3748 18.9016 14.4387 18.8389L18.8022 14.5547C18.8343 14.5233 18.8598 14.4858 18.8774 14.4445C18.8949 14.4032 18.9042 14.3588 18.9046 14.3139C18.905 14.2691 18.8966 14.2245 18.8798 14.1829C18.863 14.1413 18.8382 14.1034 18.8067 14.0713L15.8534 11.0635L18.7397 8.17718C19.6245 9.44459 20.0967 10.9541 20.0919 12.4998C20.0896 14.5126 19.289 16.4423 17.8658 17.8655C16.4425 19.2888 14.5128 20.0894 12.5001 20.0916Z" fill="white"/>
<path d="M12.5 2.19727C10.4623 2.19727 8.47039 2.80151 6.77611 3.93359C5.08184 5.06567 3.76131 6.67474 2.98152 8.55731C2.20173 10.4399 1.9977 12.5114 2.39523 14.51C2.79277 16.5085 3.77401 18.3443 5.21487 19.7851C6.65573 21.226 8.49151 22.2072 10.49 22.6048C12.4886 23.0023 14.5601 22.7983 16.4427 22.0185C18.3253 21.2387 19.9343 19.9182 21.0664 18.2239C22.1985 16.5296 22.8027 14.5377 22.8027 12.5C22.7996 9.7685 21.7132 7.14976 19.7817 5.21829C17.8502 3.28683 15.2315 2.20037 12.5 2.19727ZM12.5 22.1191C10.5975 22.1191 8.73776 21.555 7.1559 20.498C5.57404 19.4411 4.34113 17.9388 3.61308 16.1811C2.88503 14.4234 2.69454 12.4893 3.06569 10.6234C3.43685 8.75747 4.35298 7.0435 5.69825 5.69824C7.04351 4.35298 8.75747 3.43685 10.6234 3.06569C12.4893 2.69453 14.4234 2.88502 16.1811 3.61307C17.9388 4.34112 19.4411 5.57403 20.498 7.15589C21.555 8.73775 22.1191 10.5975 22.1191 12.5C22.1163 15.0503 21.1019 17.4953 19.2986 19.2986C17.4953 21.1019 15.0503 22.1162 12.5 22.1191Z" fill="white"/>
</svg>
